<svg width="160" height="49" viewBox="0 0 160 49" fill="none" xmlns="http://www.w3.org/2000/svg">
<path d="M77.2891 11.8809C77 12.2949 76.5957 12.6055 76.0762 12.8125C75.5605 13.0156 74.959 13.1172 74.2715 13.1172C73.5762 13.1172 72.959 12.9551 72.4199 12.6309C71.8809 12.3027 71.4629 11.8379 71.166 11.2363C70.873 10.6348 70.7227 9.9375 70.7148 9.14453V8.40039C70.7148 7.11523 71.0137 6.11914 71.6113 5.41211C72.2129 4.70508 73.0566 4.35156 74.1426 4.35156C75.0332 4.35156 75.75 4.58008 76.293 5.03711C76.8359 5.49023 77.168 6.13477 77.2891 6.9707H76.1641C75.9531 5.8418 75.2812 5.27734 74.1484 5.27734C73.3945 5.27734 72.8223 5.54297 72.4316 6.07422C72.0449 6.60156 71.8496 7.36719 71.8457 8.37109V9.06836C71.8457 10.0254 72.0645 10.7871 72.502 11.3535C72.9395 11.916 73.5312 12.1973 74.2773 12.1973C74.6992 12.1973 75.0684 12.1504 75.3848 12.0566C75.7012 11.9629 75.9629 11.8047 76.1699 11.582V9.66602H74.1953V8.75195H77.2891V11.8809ZM83.9922 9.05664H80.2949V12.0801H84.5898V13H79.1699V4.46875H84.5312V5.39453H80.2949V8.13672H83.9922V9.05664ZM92.002 5.39453H89.2598V13H88.1406V5.39453H85.4043V4.46875H92.002V5.39453ZM97.2168 13H96.0918V4.46875H97.2168V13ZM104.998 5.39453H102.256V13H101.137V5.39453H98.4004V4.46875H104.998V5.39453ZM115.568 9.00977C115.568 9.8457 115.428 10.5762 115.146 11.2012C114.865 11.8223 114.467 12.2969 113.951 12.625C113.436 12.9531 112.834 13.1172 112.146 13.1172C111.475 13.1172 110.879 12.9531 110.359 12.625C109.84 12.293 109.436 11.8223 109.146 11.2129C108.861 10.5996 108.715 9.89062 108.707 9.08594V8.4707C108.707 7.65039 108.85 6.92578 109.135 6.29688C109.42 5.66797 109.822 5.1875 110.342 4.85547C110.865 4.51953 111.463 4.35156 112.135 4.35156C112.818 4.35156 113.42 4.51758 113.939 4.84961C114.463 5.17773 114.865 5.65625 115.146 6.28516C115.428 6.91016 115.568 7.63867 115.568 8.4707V9.00977ZM114.449 8.45898C114.449 7.44727 114.246 6.67188 113.84 6.13281C113.434 5.58984 112.865 5.31836 112.135 5.31836C111.424 5.31836 110.863 5.58984 110.453 6.13281C110.047 6.67188 109.838 7.42188 109.826 8.38281V9.00977C109.826 9.99023 110.031 10.7617 110.441 11.3242C110.855 11.8828 111.424 12.1621 112.146 12.1621C112.873 12.1621 113.436 11.8984 113.834 11.3711C114.232 10.8398 114.438 10.0801 114.449 9.0918V8.45898ZM123.812 13H122.682L118.387 6.42578V13H117.256V4.46875H118.387L122.693 11.0723V4.46875H123.812V13Z" fill="white"/>
<path d="M83.8574 36.1328L86.2637 24.3594H88.96L85.3506 40H82.751L79.7754 28.5811L76.7354 40H74.125L70.5156 24.3594H73.2119L75.6396 36.1113L78.626 24.3594H80.9033L83.8574 36.1328ZM93.4717 40H90.8613V28.377H93.4717V40ZM90.7002 25.3584C90.7002 24.9574 90.8255 24.6243 91.0762 24.3594C91.334 24.0944 91.6992 23.9619 92.1719 23.9619C92.6445 23.9619 93.0098 24.0944 93.2676 24.3594C93.5254 24.6243 93.6543 24.9574 93.6543 25.3584C93.6543 25.7523 93.5254 26.0817 93.2676 26.3467C93.0098 26.6045 92.6445 26.7334 92.1719 26.7334C91.6992 26.7334 91.334 26.6045 91.0762 26.3467C90.8255 26.0817 90.7002 25.7523 90.7002 25.3584ZM98.7461 28.377L98.8213 29.7197C99.6807 28.6813 100.809 28.1621 102.205 28.1621C104.626 28.1621 105.857 29.5479 105.9 32.3193V40H103.29V32.4697C103.29 31.7321 103.129 31.1878 102.807 30.8369C102.492 30.4788 101.972 30.2998 101.249 30.2998C100.196 30.2998 99.4121 30.776 98.8965 31.7285V40H96.2861V28.377H98.7461ZM108.081 34.1025C108.081 32.3122 108.496 30.8763 109.327 29.7949C110.158 28.7064 111.271 28.1621 112.668 28.1621C113.9 28.1621 114.895 28.5918 115.654 29.4512V23.5H118.265V40H115.901L115.772 38.7969C114.992 39.7422 113.95 40.2148 112.646 40.2148C111.286 40.2148 110.183 39.667 109.338 38.5713C108.5 37.4756 108.081 35.986 108.081 34.1025ZM110.691 34.3281C110.691 35.5098 110.917 36.4336 111.368 37.0996C111.826 37.7585 112.475 38.0879 113.312 38.0879C114.38 38.0879 115.16 37.6117 115.654 36.6592V31.6963C115.174 30.7653 114.401 30.2998 113.334 30.2998C112.489 30.2998 111.837 30.6364 111.379 31.3096C110.921 31.9756 110.691 32.9818 110.691 34.3281ZM120.499 34.0811C120.499 32.9424 120.725 31.9183 121.176 31.0088C121.627 30.0921 122.261 29.3903 123.077 28.9033C123.894 28.4092 124.832 28.1621 125.892 28.1621C127.46 28.1621 128.731 28.667 129.705 29.6768C130.686 30.6865 131.216 32.0257 131.295 33.6943L131.306 34.3066C131.306 35.4525 131.084 36.4766 130.64 37.3789C130.203 38.2812 129.573 38.9795 128.749 39.4736C127.933 39.9678 126.987 40.2148 125.913 40.2148C124.273 40.2148 122.959 39.6706 121.971 38.582C120.99 37.4863 120.499 36.029 120.499 34.21V34.0811ZM123.109 34.3066C123.109 35.5026 123.356 36.4408 123.851 37.1211C124.345 37.7943 125.032 38.1309 125.913 38.1309C126.794 38.1309 127.478 37.7871 127.965 37.0996C128.459 36.4121 128.706 35.4059 128.706 34.0811C128.706 32.9066 128.452 31.9756 127.943 31.2881C127.442 30.6006 126.758 30.2568 125.892 30.2568C125.039 30.2568 124.363 30.597 123.861 31.2773C123.36 31.9505 123.109 32.9603 123.109 34.3066ZM143.724 36.4014L145.571 28.377H148.117L144.948 40H142.8L140.308 32.0186L137.858 40H135.71L132.53 28.377H135.076L136.956 36.3154L139.341 28.377H141.307L143.724 36.4014ZM156.378 36.8418C156.378 36.3763 156.185 36.0218 155.798 35.7783C155.418 35.5348 154.785 35.32 153.896 35.1338C153.008 34.9476 152.267 34.7113 151.673 34.4248C150.369 33.7946 149.718 32.8815 149.718 31.6855C149.718 30.6829 150.14 29.8451 150.985 29.1719C151.83 28.4987 152.905 28.1621 154.208 28.1621C155.597 28.1621 156.718 28.5059 157.57 29.1934C158.43 29.8809 158.859 30.7725 158.859 31.8682H156.249C156.249 31.3669 156.063 30.9515 155.69 30.6221C155.318 30.2855 154.824 30.1172 154.208 30.1172C153.635 30.1172 153.166 30.2497 152.801 30.5146C152.443 30.7796 152.264 31.1341 152.264 31.5781C152.264 31.9792 152.432 32.2907 152.769 32.5127C153.105 32.7347 153.785 32.9603 154.81 33.1895C155.834 33.4115 156.636 33.68 157.216 33.9951C157.803 34.3031 158.236 34.6755 158.516 35.1123C158.802 35.5492 158.945 36.0791 158.945 36.7021C158.945 37.7477 158.512 38.5964 157.646 39.248C156.779 39.8926 155.644 40.2148 154.24 40.2148C153.288 40.2148 152.439 40.043 151.694 39.6992C150.95 39.3555 150.369 38.8828 149.954 38.2812C149.539 37.6797 149.331 37.0316 149.331 36.3369H151.866C151.902 36.9528 152.135 37.429 152.564 37.7656C152.994 38.0951 153.563 38.2598 154.272 38.2598C154.96 38.2598 155.483 38.1309 155.841 37.873C156.199 37.6081 156.378 37.2643 156.378 36.8418Z" fill="white"/>
<g clip-path="url(#clip0)">
<path d="M0 12.9141V23.8516H15.3125V11L0 12.9141Z" fill="#E8E8E8"/>
<path d="M18 10.1875V23.3125H35.5V8L18 10.1875Z" fill="#E8E8E8"/>
<path d="M18 26V39.125L35.5 41.3125V26H18Z" fill="#E8E8E8"/>
<path d="M0 26V36.9375L15.3125 38.8516V26H0Z" fill="#E8E8E8"/>
</g>
<defs>
<clipPath id="clip0">
<rect width="35" height="35" fill="white" transform="translate(0 7)"/>
</clipPath>
</defs>
</svg>
