<svg width="156" height="49" viewBox="0 0 156 49" fill="none" xmlns="http://www.w3.org/2000/svg">
<path d="M59.9902 13V4.46875H62.3984C63.1406 4.46875 63.7969 4.63281 64.3672 4.96094C64.9375 5.28906 65.377 5.75586 65.6855 6.36133C65.998 6.9668 66.1562 7.66211 66.1602 8.44727V8.99219C66.1602 9.79688 66.0039 10.502 65.6914 11.1074C65.3828 11.7129 64.9395 12.1777 64.3613 12.502C63.7871 12.8262 63.1172 12.9922 62.3516 13H59.9902ZM61.1152 5.39453V12.0801H62.2988C63.166 12.0801 63.8398 11.8105 64.3203 11.2715C64.8047 10.7324 65.0469 9.96484 65.0469 8.96875V8.4707C65.0469 7.50195 64.8184 6.75 64.3613 6.21484C63.9082 5.67578 63.2637 5.40234 62.4277 5.39453H61.1152ZM67.4082 9.77148C67.4082 9.15039 67.5293 8.5918 67.7715 8.0957C68.0176 7.59961 68.3574 7.2168 68.791 6.94727C69.2285 6.67773 69.7266 6.54297 70.2852 6.54297C71.1484 6.54297 71.8457 6.8418 72.377 7.43945C72.9121 8.03711 73.1797 8.83203 73.1797 9.82422V9.90039C73.1797 10.5176 73.0605 11.0723 72.8223 11.5645C72.5879 12.0527 72.25 12.4336 71.8086 12.707C71.3711 12.9805 70.8672 13.1172 70.2969 13.1172C69.4375 13.1172 68.7402 12.8184 68.2051 12.2207C67.6738 11.623 67.4082 10.832 67.4082 9.84766V9.77148ZM68.498 9.90039C68.498 10.6035 68.6602 11.168 68.9844 11.5938C69.3125 12.0195 69.75 12.2324 70.2969 12.2324C70.8477 12.2324 71.2852 12.0176 71.6094 11.5879C71.9336 11.1543 72.0957 10.5488 72.0957 9.77148C72.0957 9.07617 71.9297 8.51367 71.5977 8.08398C71.2695 7.65039 70.832 7.43359 70.2852 7.43359C69.75 7.43359 69.3184 7.64648 68.9902 8.07227C68.6621 8.49805 68.498 9.10742 68.498 9.90039ZM80.1523 11.5059L81.3711 6.66016H82.4551L80.6094 13H79.7305L78.1895 8.19531L76.6895 13H75.8105L73.9707 6.66016H75.0488L76.2969 11.4062L77.7734 6.66016H78.6465L80.1523 11.5059ZM84.5879 6.66016L84.623 7.45703C85.1074 6.84766 85.7402 6.54297 86.5215 6.54297C87.8613 6.54297 88.5371 7.29883 88.5488 8.81055V13H87.4648V8.80469C87.4609 8.34766 87.3555 8.00977 87.1484 7.79102C86.9453 7.57227 86.627 7.46289 86.1934 7.46289C85.8418 7.46289 85.5332 7.55664 85.2676 7.74414C85.002 7.93164 84.7949 8.17773 84.6465 8.48242V13H83.5625V6.66016H84.5879ZM91.3613 13H90.2773V4H91.3613V13ZM92.8145 9.77148C92.8145 9.15039 92.9355 8.5918 93.1777 8.0957C93.4238 7.59961 93.7637 7.2168 94.1973 6.94727C94.6348 6.67773 95.1328 6.54297 95.6914 6.54297C96.5547 6.54297 97.252 6.8418 97.7832 7.43945C98.3184 8.03711 98.5859 8.83203 98.5859 9.82422V9.90039C98.5859 10.5176 98.4668 11.0723 98.2285 11.5645C97.9941 12.0527 97.6562 12.4336 97.2148 12.707C96.7773 12.9805 96.2734 13.1172 95.7031 13.1172C94.8438 13.1172 94.1465 12.8184 93.6113 12.2207C93.0801 11.623 92.8145 10.832 92.8145 9.84766V9.77148ZM93.9043 9.90039C93.9043 10.6035 94.0664 11.168 94.3906 11.5938C94.7188 12.0195 95.1562 12.2324 95.7031 12.2324C96.2539 12.2324 96.6914 12.0176 97.0156 11.5879C97.3398 11.1543 97.502 10.5488 97.502 9.77148C97.502 9.07617 97.3359 8.51367 97.0039 8.08398C96.6758 7.65039 96.2383 7.43359 95.6914 7.43359C95.1562 7.43359 94.7246 7.64648 94.3965 8.07227C94.0684 8.49805 93.9043 9.10742 93.9043 9.90039ZM103.859 13C103.797 12.875 103.746 12.6523 103.707 12.332C103.203 12.8555 102.602 13.1172 101.902 13.1172C101.277 13.1172 100.764 12.9414 100.361 12.5898C99.9629 12.2344 99.7637 11.7852 99.7637 11.2422C99.7637 10.582 100.014 10.0703 100.514 9.70703C101.018 9.33984 101.725 9.15625 102.635 9.15625H103.689V8.6582C103.689 8.2793 103.576 7.97852 103.35 7.75586C103.123 7.5293 102.789 7.41602 102.348 7.41602C101.961 7.41602 101.637 7.51367 101.375 7.70898C101.113 7.9043 100.982 8.14062 100.982 8.41797H99.8926C99.8926 8.10156 100.004 7.79688 100.227 7.50391C100.453 7.20703 100.758 6.97266 101.141 6.80078C101.527 6.62891 101.951 6.54297 102.412 6.54297C103.143 6.54297 103.715 6.72656 104.129 7.09375C104.543 7.45703 104.758 7.95898 104.773 8.59961V11.5176C104.773 12.0996 104.848 12.5625 104.996 12.9062V13H103.859ZM102.061 12.1738C102.4 12.1738 102.723 12.0859 103.027 11.9102C103.332 11.7344 103.553 11.5059 103.689 11.2246V9.92383H102.84C101.512 9.92383 100.848 10.3125 100.848 11.0898C100.848 11.4297 100.961 11.6953 101.188 11.8867C101.414 12.0781 101.705 12.1738 102.061 12.1738ZM106.209 9.77734C106.209 8.80469 106.439 8.02344 106.9 7.43359C107.361 6.83984 107.965 6.54297 108.711 6.54297C109.453 6.54297 110.041 6.79688 110.475 7.30469V4H111.559V13H110.562L110.51 12.3203C110.076 12.8516 109.473 13.1172 108.699 13.1172C107.965 13.1172 107.365 12.8164 106.9 12.2148C106.439 11.6133 106.209 10.8281 106.209 9.85938V9.77734ZM107.293 9.90039C107.293 10.6191 107.441 11.1816 107.738 11.5879C108.035 11.9941 108.445 12.1973 108.969 12.1973C109.656 12.1973 110.158 11.8887 110.475 11.2715V8.35938C110.15 7.76172 109.652 7.46289 108.98 7.46289C108.449 7.46289 108.035 7.66797 107.738 8.07812C107.441 8.48828 107.293 9.0957 107.293 9.90039ZM115.936 9.77148C115.936 9.15039 116.057 8.5918 116.299 8.0957C116.545 7.59961 116.885 7.2168 117.318 6.94727C117.756 6.67773 118.254 6.54297 118.812 6.54297C119.676 6.54297 120.373 6.8418 120.904 7.43945C121.439 8.03711 121.707 8.83203 121.707 9.82422V9.90039C121.707 10.5176 121.588 11.0723 121.35 11.5645C121.115 12.0527 120.777 12.4336 120.336 12.707C119.898 12.9805 119.395 13.1172 118.824 13.1172C117.965 13.1172 117.268 12.8184 116.732 12.2207C116.201 11.623 115.936 10.832 115.936 9.84766V9.77148ZM117.025 9.90039C117.025 10.6035 117.188 11.168 117.512 11.5938C117.84 12.0195 118.277 12.2324 118.824 12.2324C119.375 12.2324 119.812 12.0176 120.137 11.5879C120.461 11.1543 120.623 10.5488 120.623 9.77148C120.623 9.07617 120.457 8.51367 120.125 8.08398C119.797 7.65039 119.359 7.43359 118.812 7.43359C118.277 7.43359 117.846 7.64648 117.518 8.07227C117.189 8.49805 117.025 9.10742 117.025 9.90039ZM124.092 6.66016L124.127 7.45703C124.611 6.84766 125.244 6.54297 126.025 6.54297C127.365 6.54297 128.041 7.29883 128.053 8.81055V13H126.969V8.80469C126.965 8.34766 126.859 8.00977 126.652 7.79102C126.449 7.57227 126.131 7.46289 125.697 7.46289C125.346 7.46289 125.037 7.55664 124.771 7.74414C124.506 7.93164 124.299 8.17773 124.15 8.48242V13H123.066V6.66016H124.092ZM134.135 5.125V6.66016H135.318V7.49805H134.135V11.4297C134.135 11.6836 134.188 11.875 134.293 12.0039C134.398 12.1289 134.578 12.1914 134.832 12.1914C134.957 12.1914 135.129 12.168 135.348 12.1211V13C135.062 13.0781 134.785 13.1172 134.516 13.1172C134.031 13.1172 133.666 12.9707 133.42 12.6777C133.174 12.3848 133.051 11.9688 133.051 11.4297V7.49805H131.896V6.66016H133.051V5.125H134.135ZM137.674 7.42773C138.154 6.83789 138.779 6.54297 139.549 6.54297C140.889 6.54297 141.564 7.29883 141.576 8.81055V13H140.492V8.80469C140.488 8.34766 140.383 8.00977 140.176 7.79102C139.973 7.57227 139.654 7.46289 139.221 7.46289C138.869 7.46289 138.561 7.55664 138.295 7.74414C138.029 7.93164 137.822 8.17773 137.674 8.48242V13H136.59V4H137.674V7.42773ZM145.83 13.1172C144.971 13.1172 144.271 12.8359 143.732 12.2734C143.193 11.707 142.924 10.9512 142.924 10.0059V9.80664C142.924 9.17773 143.043 8.61719 143.281 8.125C143.523 7.62891 143.859 7.24219 144.289 6.96484C144.723 6.68359 145.191 6.54297 145.695 6.54297C146.52 6.54297 147.16 6.81445 147.617 7.35742C148.074 7.90039 148.303 8.67773 148.303 9.68945V10.1406H144.008C144.023 10.7656 144.205 11.2715 144.553 11.6582C144.904 12.041 145.35 12.2324 145.889 12.2324C146.271 12.2324 146.596 12.1543 146.861 11.998C147.127 11.8418 147.359 11.6348 147.559 11.377L148.221 11.8926C147.689 12.709 146.893 13.1172 145.83 13.1172ZM145.695 7.43359C145.258 7.43359 144.891 7.59375 144.594 7.91406C144.297 8.23047 144.113 8.67578 144.043 9.25H147.219V9.16797C147.188 8.61719 147.039 8.19141 146.773 7.89062C146.508 7.58594 146.148 7.43359 145.695 7.43359Z" fill="white"/>
<path d="M69.3447 36.3584H63.2861L62.0186 40H59.1934L65.1016 24.3594H67.54L73.459 40H70.623L69.3447 36.3584ZM64.0488 34.167H68.582L66.3154 27.6787L64.0488 34.167ZM84.6523 34.3066C84.6523 36.1042 84.2441 37.54 83.4277 38.6143C82.6113 39.6813 81.5156 40.2148 80.1406 40.2148C78.8659 40.2148 77.8454 39.7959 77.0791 38.958V44.4688H74.4688V28.377H76.875L76.9824 29.5586C77.7487 28.6276 78.7907 28.1621 80.1084 28.1621C81.5264 28.1621 82.6364 28.6921 83.4385 29.752C84.2477 30.8047 84.6523 32.2692 84.6523 34.1455V34.3066ZM82.0527 34.0811C82.0527 32.9209 81.82 32.0007 81.3545 31.3203C80.8962 30.64 80.2373 30.2998 79.3779 30.2998C78.3109 30.2998 77.5446 30.7402 77.0791 31.6211V36.7773C77.5518 37.6797 78.3252 38.1309 79.3994 38.1309C80.2301 38.1309 80.8783 37.7979 81.3438 37.1318C81.8164 36.4587 82.0527 35.4417 82.0527 34.0811ZM97.0488 34.3066C97.0488 36.1042 96.6406 37.54 95.8242 38.6143C95.0078 39.6813 93.9121 40.2148 92.5371 40.2148C91.2624 40.2148 90.2419 39.7959 89.4756 38.958V44.4688H86.8652V28.377H89.2715L89.3789 29.5586C90.1452 28.6276 91.1872 28.1621 92.5049 28.1621C93.9229 28.1621 95.0329 28.6921 95.835 29.752C96.6442 30.8047 97.0488 32.2692 97.0488 34.1455V34.3066ZM94.4492 34.0811C94.4492 32.9209 94.2165 32.0007 93.751 31.3203C93.2926 30.64 92.6338 30.2998 91.7744 30.2998C90.7074 30.2998 89.9411 30.7402 89.4756 31.6211V36.7773C89.9482 37.6797 90.7217 38.1309 91.7959 38.1309C92.6266 38.1309 93.2747 37.7979 93.7402 37.1318C94.2129 36.4587 94.4492 35.4417 94.4492 34.0811ZM113.173 35.9717C113.173 35.2842 112.929 34.7542 112.442 34.3818C111.963 34.0094 111.092 33.6335 109.832 33.2539C108.572 32.8743 107.569 32.4518 106.824 31.9863C105.399 31.0911 104.687 29.9238 104.687 28.4844C104.687 27.224 105.199 26.1855 106.223 25.3691C107.254 24.5527 108.59 24.1445 110.229 24.1445C111.318 24.1445 112.288 24.3451 113.141 24.7461C113.993 25.1471 114.662 25.7201 115.149 26.4648C115.636 27.2025 115.88 28.0225 115.88 28.9248H113.173C113.173 28.1084 112.915 27.471 112.399 27.0127C111.891 26.5472 111.16 26.3145 110.208 26.3145C109.32 26.3145 108.629 26.5042 108.135 26.8838C107.648 27.2633 107.404 27.7933 107.404 28.4736C107.404 29.0465 107.669 29.5264 108.199 29.9131C108.729 30.2926 109.603 30.665 110.82 31.0303C112.038 31.3883 113.015 31.8001 113.753 32.2656C114.491 32.724 115.031 33.2539 115.375 33.8555C115.719 34.4499 115.891 35.1481 115.891 35.9502C115.891 37.2536 115.389 38.292 114.387 39.0654C113.391 39.8317 112.038 40.2148 110.326 40.2148C109.195 40.2148 108.153 40.0072 107.2 39.5918C106.255 39.1693 105.517 38.5892 104.987 37.8516C104.465 37.1139 104.203 36.2546 104.203 35.2734H106.921C106.921 36.1615 107.215 36.849 107.802 37.3359C108.389 37.8229 109.23 38.0664 110.326 38.0664C111.271 38.0664 111.98 37.8766 112.453 37.4971C112.933 37.1104 113.173 36.6019 113.173 35.9717ZM121.294 25.5518V28.377H123.346V30.3105H121.294V36.7988C121.294 37.2428 121.38 37.5651 121.552 37.7656C121.731 37.959 122.046 38.0557 122.497 38.0557C122.798 38.0557 123.102 38.0199 123.41 37.9482V39.9678C122.816 40.1325 122.243 40.2148 121.691 40.2148C119.686 40.2148 118.684 39.1084 118.684 36.8955V30.3105H116.771V28.377H118.684V25.5518H121.294ZM124.538 34.0811C124.538 32.9424 124.764 31.9183 125.215 31.0088C125.666 30.0921 126.3 29.3903 127.116 28.9033C127.933 28.4092 128.871 28.1621 129.931 28.1621C131.499 28.1621 132.77 28.667 133.744 29.6768C134.725 30.6865 135.255 32.0257 135.334 33.6943L135.345 34.3066C135.345 35.4525 135.123 36.4766 134.679 37.3789C134.242 38.2812 133.612 38.9795 132.788 39.4736C131.972 39.9678 131.026 40.2148 129.952 40.2148C128.312 40.2148 126.998 39.6706 126.01 38.582C125.029 37.4863 124.538 36.029 124.538 34.21V34.0811ZM127.148 34.3066C127.148 35.5026 127.396 36.4408 127.89 37.1211C128.384 37.7943 129.071 38.1309 129.952 38.1309C130.833 38.1309 131.517 37.7871 132.004 37.0996C132.498 36.4121 132.745 35.4059 132.745 34.0811C132.745 32.9066 132.491 31.9756 131.982 31.2881C131.481 30.6006 130.797 30.2568 129.931 30.2568C129.078 30.2568 128.402 30.597 127.9 31.2773C127.399 31.9505 127.148 32.9603 127.148 34.3066ZM143.638 30.7617C143.294 30.7044 142.939 30.6758 142.574 30.6758C141.378 30.6758 140.573 31.1341 140.157 32.0508V40H137.547V28.377H140.039L140.104 29.6768C140.734 28.667 141.607 28.1621 142.725 28.1621C143.097 28.1621 143.405 28.2122 143.648 28.3125L143.638 30.7617ZM150.19 40.2148C148.536 40.2148 147.193 39.6956 146.162 38.6572C145.138 37.6117 144.626 36.2223 144.626 34.4893V34.167C144.626 33.0068 144.848 31.972 145.292 31.0625C145.743 30.1458 146.373 29.4333 147.183 28.9248C147.992 28.4163 148.894 28.1621 149.89 28.1621C151.472 28.1621 152.693 28.667 153.553 29.6768C154.419 30.6865 154.853 32.1152 154.853 33.9629V35.0156H147.258C147.337 35.9753 147.655 36.7344 148.214 37.293C148.78 37.8516 149.489 38.1309 150.341 38.1309C151.537 38.1309 152.511 37.6475 153.263 36.6807L154.67 38.0234C154.204 38.7181 153.581 39.2588 152.801 39.6455C152.027 40.0251 151.157 40.2148 150.19 40.2148ZM149.879 30.2568C149.163 30.2568 148.583 30.5075 148.139 31.0088C147.702 31.5101 147.423 32.2083 147.301 33.1035H152.274V32.9102C152.217 32.0365 151.984 31.3776 151.576 30.9336C151.168 30.4824 150.602 30.2568 149.879 30.2568Z" fill="white"/>
<path d="M23.808 3C21.7677 3.14381 19.3829 4.47467 17.9932 6.20772C16.7255 7.77989 15.6826 10.115 16.0893 12.3843C18.3185 12.455 20.6219 11.0924 21.9566 9.33013C23.2052 7.68971 24.15 5.36923 23.808 3Z" fill="#E8E8E8"/>
<path d="M31.582 15.956C29.623 13.4527 26.8699 12 24.2699 12C20.8375 12 19.3856 13.6745 17.0009 13.6745C14.542 13.6745 12.6739 12.0049 9.70551 12.0049C6.78976 12.0049 3.68505 13.8208 1.7165 16.9261C-1.05095 21.299 -0.577349 29.5206 3.9075 36.5235C5.51247 39.0292 7.65563 41.8469 10.459 41.8713C12.9537 41.8957 13.657 40.2406 17.0367 40.2236C20.4165 40.2041 21.0575 41.8932 23.5475 41.8664C26.3533 41.8445 28.6136 38.7221 30.2186 36.2163C31.3691 34.4199 31.7973 33.5156 32.6894 31.4876C26.2002 28.9697 25.1597 19.5659 31.582 15.956Z" fill="#E8E8E8"/>
</svg>
