<svg width="177" height="49" viewBox="0 0 177 49" fill="none" xmlns="http://www.w3.org/2000/svg">
<path d="M66.2891 11.8809C66 12.2949 65.5957 12.6055 65.0762 12.8125C64.5605 13.0156 63.959 13.1172 63.2715 13.1172C62.5762 13.1172 61.959 12.9551 61.4199 12.6309C60.8809 12.3027 60.4629 11.8379 60.166 11.2363C59.873 10.6348 59.7227 9.9375 59.7148 9.14453V8.40039C59.7148 7.11523 60.0137 6.11914 60.6113 5.41211C61.2129 4.70508 62.0566 4.35156 63.1426 4.35156C64.0332 4.35156 64.75 4.58008 65.293 5.03711C65.8359 5.49023 66.168 6.13477 66.2891 6.9707H65.1641C64.9531 5.8418 64.2812 5.27734 63.1484 5.27734C62.3945 5.27734 61.8223 5.54297 61.4316 6.07422C61.0449 6.60156 60.8496 7.36719 60.8457 8.37109V9.06836C60.8457 10.0254 61.0645 10.7871 61.502 11.3535C61.9395 11.916 62.5312 12.1973 63.2773 12.1973C63.6992 12.1973 64.0684 12.1504 64.3848 12.0566C64.7012 11.9629 64.9629 11.8047 65.1699 11.582V9.66602H63.1953V8.75195H66.2891V11.8809ZM72.9922 9.05664H69.2949V12.0801H73.5898V13H68.1699V4.46875H73.5312V5.39453H69.2949V8.13672H72.9922V9.05664ZM81.002 5.39453H78.2598V13H77.1406V5.39453H74.4043V4.46875H81.002V5.39453ZM86.2168 13H85.0918V4.46875H86.2168V13ZM93.998 5.39453H91.2559V13H90.1367V5.39453H87.4004V4.46875H93.998V5.39453ZM104.568 9.00977C104.568 9.8457 104.428 10.5762 104.146 11.2012C103.865 11.8223 103.467 12.2969 102.951 12.625C102.436 12.9531 101.834 13.1172 101.146 13.1172C100.475 13.1172 99.8789 12.9531 99.3594 12.625C98.8398 12.293 98.4355 11.8223 98.1465 11.2129C97.8613 10.5996 97.7148 9.89062 97.707 9.08594V8.4707C97.707 7.65039 97.8496 6.92578 98.1348 6.29688C98.4199 5.66797 98.8223 5.1875 99.3418 4.85547C99.8652 4.51953 100.463 4.35156 101.135 4.35156C101.818 4.35156 102.42 4.51758 102.939 4.84961C103.463 5.17773 103.865 5.65625 104.146 6.28516C104.428 6.91016 104.568 7.63867 104.568 8.4707V9.00977ZM103.449 8.45898C103.449 7.44727 103.246 6.67188 102.84 6.13281C102.434 5.58984 101.865 5.31836 101.135 5.31836C100.424 5.31836 99.8633 5.58984 99.4531 6.13281C99.0469 6.67188 98.8379 7.42188 98.8262 8.38281V9.00977C98.8262 9.99023 99.0312 10.7617 99.4414 11.3242C99.8555 11.8828 100.424 12.1621 101.146 12.1621C101.873 12.1621 102.436 11.8984 102.834 11.3711C103.232 10.8398 103.438 10.0801 103.449 9.0918V8.45898ZM112.812 13H111.682L107.387 6.42578V13H106.256V4.46875H107.387L111.693 11.0723V4.46875H112.812V13Z" fill="white"/>
<path d="M72.5781 37.9697C72.0124 38.7074 71.2282 39.266 70.2256 39.6455C69.223 40.0251 68.0843 40.2148 66.8096 40.2148C65.499 40.2148 64.3389 39.9176 63.3291 39.3232C62.3193 38.7288 61.5387 37.8802 60.9873 36.7773C60.443 35.6673 60.1602 34.3747 60.1387 32.8994V31.6748C60.1387 29.3115 60.7044 27.4674 61.8359 26.1426C62.9674 24.8105 64.5465 24.1445 66.5732 24.1445C68.3135 24.1445 69.6956 24.5742 70.7197 25.4336C71.7438 26.293 72.3597 27.5319 72.5674 29.1504H69.9033C69.6025 27.2669 68.5104 26.3252 66.627 26.3252C65.4095 26.3252 64.4821 26.7656 63.8447 27.6465C63.2145 28.5202 62.8887 29.8057 62.8672 31.5029V32.7061C62.8672 34.3962 63.2217 35.7103 63.9307 36.6484C64.6468 37.5794 65.6387 38.0449 66.9062 38.0449C68.2956 38.0449 69.2839 37.7298 69.8711 37.0996V34.0381H66.6484V31.9756H72.5781V37.9697ZM74.8232 34.0811C74.8232 32.9424 75.0488 31.9183 75.5 31.0088C75.9512 30.0921 76.585 29.3903 77.4014 28.9033C78.2178 28.4092 79.1559 28.1621 80.2158 28.1621C81.7842 28.1621 83.0553 28.667 84.0293 29.6768C85.0104 30.6865 85.5404 32.0257 85.6191 33.6943L85.6299 34.3066C85.6299 35.4525 85.4079 36.4766 84.9639 37.3789C84.527 38.2812 83.8968 38.9795 83.0732 39.4736C82.2568 39.9678 81.3115 40.2148 80.2373 40.2148C78.5973 40.2148 77.2832 39.6706 76.2949 38.582C75.3138 37.4863 74.8232 36.029 74.8232 34.21V34.0811ZM77.4336 34.3066C77.4336 35.5026 77.6807 36.4408 78.1748 37.1211C78.6689 37.7943 79.3564 38.1309 80.2373 38.1309C81.1182 38.1309 81.8021 37.7871 82.2891 37.0996C82.7832 36.4121 83.0303 35.4059 83.0303 34.0811C83.0303 32.9066 82.776 31.9756 82.2676 31.2881C81.7663 30.6006 81.0824 30.2568 80.2158 30.2568C79.3636 30.2568 78.6868 30.597 78.1855 31.2773C77.6842 31.9505 77.4336 32.9603 77.4336 34.3066ZM87.3486 34.0811C87.3486 32.9424 87.5742 31.9183 88.0254 31.0088C88.4766 30.0921 89.1104 29.3903 89.9268 28.9033C90.7432 28.4092 91.6813 28.1621 92.7412 28.1621C94.3096 28.1621 95.5807 28.667 96.5547 29.6768C97.5358 30.6865 98.0658 32.0257 98.1445 33.6943L98.1553 34.3066C98.1553 35.4525 97.9333 36.4766 97.4893 37.3789C97.0524 38.2812 96.4222 38.9795 95.5986 39.4736C94.7822 39.9678 93.8369 40.2148 92.7627 40.2148C91.1227 40.2148 89.8086 39.6706 88.8203 38.582C87.8392 37.4863 87.3486 36.029 87.3486 34.21V34.0811ZM89.959 34.3066C89.959 35.5026 90.2061 36.4408 90.7002 37.1211C91.1943 37.7943 91.8818 38.1309 92.7627 38.1309C93.6436 38.1309 94.3275 37.7871 94.8145 37.0996C95.3086 36.4121 95.5557 35.4059 95.5557 34.0811C95.5557 32.9066 95.3014 31.9756 94.793 31.2881C94.2917 30.6006 93.6077 30.2568 92.7412 30.2568C91.889 30.2568 91.2122 30.597 90.7109 31.2773C90.2096 31.9505 89.959 32.9603 89.959 34.3066ZM99.9062 34.1025C99.9062 32.2979 100.329 30.8584 101.174 29.7842C102.026 28.7028 103.154 28.1621 104.558 28.1621C105.882 28.1621 106.924 28.624 107.684 29.5479L107.802 28.377H110.154V39.6455C110.154 41.1709 109.678 42.374 108.726 43.2549C107.78 44.1357 106.502 44.5762 104.891 44.5762C104.038 44.5762 103.204 44.3971 102.388 44.0391C101.578 43.6882 100.963 43.2262 100.54 42.6533L101.775 41.085C102.577 42.0374 103.566 42.5137 104.74 42.5137C105.607 42.5137 106.291 42.2773 106.792 41.8047C107.293 41.3392 107.544 40.6517 107.544 39.7422V38.958C106.792 39.7959 105.789 40.2148 104.536 40.2148C103.175 40.2148 102.062 39.6742 101.195 38.5928C100.336 37.5114 99.9062 36.0146 99.9062 34.1025ZM102.506 34.3281C102.506 35.4954 102.742 36.4157 103.215 37.0889C103.695 37.7549 104.357 38.0879 105.202 38.0879C106.255 38.0879 107.035 37.6367 107.544 36.7344V31.6211C107.05 30.7402 106.276 30.2998 105.224 30.2998C104.364 30.2998 103.695 30.64 103.215 31.3203C102.742 32.0007 102.506 33.0033 102.506 34.3281ZM115.622 40H113.012V23.5H115.622V40ZM123.593 40.2148C121.938 40.2148 120.596 39.6956 119.564 38.6572C118.54 37.6117 118.028 36.2223 118.028 34.4893V34.167C118.028 33.0068 118.25 31.972 118.694 31.0625C119.146 30.1458 119.776 29.4333 120.585 28.9248C121.394 28.4163 122.297 28.1621 123.292 28.1621C124.875 28.1621 126.096 28.667 126.955 29.6768C127.822 30.6865 128.255 32.1152 128.255 33.9629V35.0156H120.66C120.739 35.9753 121.058 36.7344 121.616 37.293C122.182 37.8516 122.891 38.1309 123.743 38.1309C124.939 38.1309 125.913 37.6475 126.665 36.6807L128.072 38.0234C127.607 38.7181 126.984 39.2588 126.203 39.6455C125.43 40.0251 124.56 40.2148 123.593 40.2148ZM123.281 30.2568C122.565 30.2568 121.985 30.5075 121.541 31.0088C121.104 31.5101 120.825 32.2083 120.703 33.1035H125.677V32.9102C125.619 32.0365 125.387 31.3776 124.979 30.9336C124.57 30.4824 124.005 30.2568 123.281 30.2568ZM138.739 34.1885V40H136.021V24.3594H142.005C143.752 24.3594 145.138 24.8141 146.162 25.7236C147.193 26.6331 147.709 27.8363 147.709 29.333C147.709 30.8656 147.204 32.0579 146.194 32.9102C145.192 33.7624 143.785 34.1885 141.973 34.1885H138.739ZM138.739 32.0078H142.005C142.972 32.0078 143.709 31.7822 144.218 31.3311C144.726 30.8727 144.98 30.2139 144.98 29.3545C144.98 28.5094 144.723 27.8363 144.207 27.335C143.691 26.8265 142.982 26.5651 142.08 26.5508H138.739V32.0078ZM152.618 40H150.008V23.5H152.618V40ZM162.415 40C162.3 39.778 162.2 39.4163 162.114 38.915C161.284 39.7816 160.267 40.2148 159.063 40.2148C157.896 40.2148 156.944 39.8818 156.206 39.2158C155.468 38.5498 155.1 37.7262 155.1 36.7451C155.1 35.5062 155.558 34.5573 156.475 33.8984C157.398 33.2324 158.716 32.8994 160.428 32.8994H162.028V32.1367C162.028 31.5352 161.86 31.0553 161.523 30.6973C161.187 30.332 160.675 30.1494 159.987 30.1494C159.393 30.1494 158.906 30.2998 158.526 30.6006C158.147 30.8942 157.957 31.2702 157.957 31.7285H155.347C155.347 31.0911 155.558 30.4967 155.98 29.9453C156.403 29.3867 156.976 28.9499 157.699 28.6348C158.43 28.3197 159.243 28.1621 160.138 28.1621C161.498 28.1621 162.583 28.5059 163.393 29.1934C164.202 29.8737 164.617 30.8333 164.639 32.0723V37.3145C164.639 38.36 164.785 39.1943 165.079 39.8174V40H162.415ZM159.547 38.1201C160.062 38.1201 160.546 37.9948 160.997 37.7441C161.455 37.4935 161.799 37.1569 162.028 36.7344V34.543H160.621C159.654 34.543 158.927 34.7113 158.44 35.0479C157.953 35.3844 157.71 35.8607 157.71 36.4766C157.71 36.9779 157.875 37.3789 158.204 37.6797C158.541 37.9733 158.988 38.1201 159.547 38.1201ZM171.267 36.2617L173.63 28.377H176.412L171.793 41.7617C171.084 43.7168 169.881 44.6943 168.184 44.6943C167.804 44.6943 167.385 44.6299 166.927 44.501V42.4814L167.421 42.5137C168.08 42.5137 168.574 42.3919 168.903 42.1484C169.24 41.9121 169.505 41.5111 169.698 40.9453L170.074 39.9463L165.992 28.377H168.807L171.267 36.2617Z" fill="white"/>
<path d="M6.37811 6.57574C4.99601 5.79728 3.37326 5.81528 2 6.58699L18.095 21.7174L23.502 16.2074L6.37811 6.57574Z" fill="#E8E8E8"/>
<path d="M0.61819 8C0.225198 8.65471 0 9.40392 0 10.1981V37.5251C0 38.2945 0.205327 39.028 0.576241 39.6692L16.7618 23.1754L0.61819 8Z" fill="#E8E8E8"/>
<path d="M30.953 19.9001L25.7955 17L20 22.9037L27.1026 29.5791L30.9552 27.4124C32.3417 26.6295 33.1719 25.2255 33.1719 23.6551C33.1696 22.0847 32.3417 20.6808 30.953 19.9001Z" fill="#E8E8E8"/>
<path d="M18.2297 25L2 41.5388C2.70429 41.9483 3.47703 42.1643 4.25418 42.1643C5.00484 42.1643 5.75992 41.9708 6.45097 41.5816L24.8576 31.2299L18.2297 25Z" fill="#E8E8E8"/>
</svg>
