<svg width="147" height="40" viewBox="0 0 147 40" fill="none" xmlns="http://www.w3.org/2000/svg">
<path d="M80.3447 24.3584H74.2861L73.0186 28H70.1934L76.1016 12.3594H78.54L84.459 28H81.623L80.3447 24.3584ZM75.0488 22.167H79.582L77.3154 15.6787L75.0488 22.167ZM87.8965 16.377L87.9717 17.7197C88.8311 16.6813 89.959 16.1621 91.3555 16.1621C93.776 16.1621 95.0078 17.5479 95.0508 20.3193V28H92.4404V20.4697C92.4404 19.7321 92.2793 19.1878 91.957 18.8369C91.6419 18.4788 91.1227 18.2998 90.3994 18.2998C89.3467 18.2998 88.5625 18.776 88.0469 19.7285V28H85.4365V16.377H87.8965ZM97.2314 22.1025C97.2314 20.3122 97.6468 18.8763 98.4775 17.7949C99.3083 16.7064 100.422 16.1621 101.818 16.1621C103.05 16.1621 104.046 16.5918 104.805 17.4512V11.5H107.415V28H105.052L104.923 26.7969C104.142 27.7422 103.1 28.2148 101.797 28.2148C100.436 28.2148 99.3333 27.667 98.4883 26.5713C97.6504 25.4756 97.2314 23.986 97.2314 22.1025ZM99.8418 22.3281C99.8418 23.5098 100.067 24.4336 100.519 25.0996C100.977 25.7585 101.625 26.0879 102.463 26.0879C103.53 26.0879 104.311 25.6117 104.805 24.6592V19.6963C104.325 18.7653 103.551 18.2998 102.484 18.2998C101.639 18.2998 100.988 18.6364 100.529 19.3096C100.071 19.9756 99.8418 20.9818 99.8418 22.3281ZM116.224 18.7617C115.88 18.7044 115.525 18.6758 115.16 18.6758C113.964 18.6758 113.159 19.1341 112.743 20.0508V28H110.133V16.377H112.625L112.689 17.6768C113.32 16.667 114.193 16.1621 115.311 16.1621C115.683 16.1621 115.991 16.2122 116.234 16.3125L116.224 18.7617ZM116.997 22.0811C116.997 20.9424 117.223 19.9183 117.674 19.0088C118.125 18.0921 118.759 17.3903 119.575 16.9033C120.392 16.4092 121.33 16.1621 122.39 16.1621C123.958 16.1621 125.229 16.667 126.203 17.6768C127.184 18.6865 127.714 20.0257 127.793 21.6943L127.804 22.3066C127.804 23.4525 127.582 24.4766 127.138 25.3789C126.701 26.2812 126.071 26.9795 125.247 27.4736C124.431 27.9678 123.485 28.2148 122.411 28.2148C120.771 28.2148 119.457 27.6706 118.469 26.582C117.488 25.4863 116.997 24.029 116.997 22.21V22.0811ZM119.607 22.3066C119.607 23.5026 119.854 24.4408 120.349 25.1211C120.843 25.7943 121.53 26.1309 122.411 26.1309C123.292 26.1309 123.976 25.7871 124.463 25.0996C124.957 24.4121 125.204 23.4059 125.204 22.0811C125.204 20.9066 124.95 19.9756 124.441 19.2881C123.94 18.6006 123.256 18.2568 122.39 18.2568C121.537 18.2568 120.861 18.597 120.359 19.2773C119.858 19.9505 119.607 20.9603 119.607 22.3066ZM132.788 28H130.178V16.377H132.788V28ZM130.017 13.3584C130.017 12.9574 130.142 12.6243 130.393 12.3594C130.65 12.0944 131.016 11.9619 131.488 11.9619C131.961 11.9619 132.326 12.0944 132.584 12.3594C132.842 12.6243 132.971 12.9574 132.971 13.3584C132.971 13.7523 132.842 14.0817 132.584 14.3467C132.326 14.6045 131.961 14.7334 131.488 14.7334C131.016 14.7334 130.65 14.6045 130.393 14.3467C130.142 14.0817 130.017 13.7523 130.017 13.3584ZM135.151 22.1025C135.151 20.3122 135.567 18.8763 136.397 17.7949C137.228 16.7064 138.342 16.1621 139.738 16.1621C140.97 16.1621 141.965 16.5918 142.725 17.4512V11.5H145.335V28H142.972L142.843 26.7969C142.062 27.7422 141.02 28.2148 139.717 28.2148C138.356 28.2148 137.253 27.667 136.408 26.5713C135.57 25.4756 135.151 23.986 135.151 22.1025ZM137.762 22.3281C137.762 23.5098 137.987 24.4336 138.438 25.0996C138.897 25.7585 139.545 26.0879 140.383 26.0879C141.45 26.0879 142.23 25.6117 142.725 24.6592V19.6963C142.245 18.7653 141.471 18.2998 140.404 18.2998C139.559 18.2998 138.908 18.6364 138.449 19.3096C137.991 19.9756 137.762 20.9818 137.762 22.3281Z" fill="white"/>
<path d="M24.3314 15H7.82533C7.36976 15 7 15.3733 7 15.8333V29.1657C7 31.179 8.41955 32.8605 10.3012 33.2488V37.4985C10.3012 38.8768 11.4121 39.9984 12.7771 39.9984C14.1422 39.9984 15.253 38.8768 15.253 37.4985V33.3322H16.9036V37.4985C16.9036 38.8768 18.0145 39.9984 19.3795 39.9984C20.7446 39.9984 21.8554 38.8768 21.8554 37.4985V33.2488C23.7371 32.8622 25.1567 31.179 25.1567 29.1657V15.8333C25.1567 15.3717 24.787 15 24.3314 15Z" fill="#E8E8E8"/>
<path d="M20.3979 4.44075L21.7894 1.16262C21.9692 0.739289 21.7745 0.251041 21.3552 0.0693352C20.9409 -0.114012 20.4507 0.0826937 20.2724 0.507664L18.8809 3.78744C17.9979 3.49746 17.057 3.33583 16.0798 3.33583C15.1027 3.33583 14.1619 3.49746 13.2787 3.78744L11.8841 0.507664C11.7058 0.0826937 11.2156 -0.115652 10.8013 0.0693352C10.382 0.250963 10.1889 0.74093 10.3689 1.16262L11.7603 4.44075C8.92625 5.99401 7 9.02544 7 12.5018C7 12.9618 7.36976 13.3351 7.82533 13.3351H24.3313C24.7869 13.3351 25.1567 12.9618 25.1567 12.5018C25.1566 9.02544 23.2303 5.99401 20.3979 4.44075ZM12.7771 10.002C12.3215 10.002 11.9517 9.62868 11.9517 9.16871C11.9517 8.70874 12.3215 8.33541 12.7771 8.33541C13.2326 8.33541 13.6024 8.70874 13.6024 9.16871C13.6024 9.62868 13.2326 10.002 12.7771 10.002ZM19.3795 10.002C18.924 10.002 18.5542 9.62868 18.5542 9.16871C18.5542 8.70874 18.924 8.33541 19.3795 8.33541C19.8351 8.33541 20.2049 8.70874 20.2049 9.16871C20.2049 9.62868 19.8351 10.002 19.3795 10.002Z" fill="#E8E8E8"/>
<path d="M28.4759 15C27.1108 15 26 16.1216 26 17.4998V25.8326C26 27.2109 27.1108 28.3324 28.4759 28.3324C29.841 28.3324 30.9518 27.2109 30.9518 25.8326V17.4998C30.9518 16.1216 29.841 15 28.4759 15Z" fill="#E8E8E8"/>
<path d="M2.4759 15C1.11083 15 0 16.1216 0 17.4998V25.8326C0 27.2109 1.11083 28.3324 2.4759 28.3324C3.84098 28.3324 4.95181 27.2109 4.95181 25.8326V17.4998C4.95181 16.1216 3.84098 15 2.4759 15Z" fill="#E8E8E8"/>
</svg>
