<svg width="32" height="24" viewBox="0 0 32 24" fill="none" xmlns="http://www.w3.org/2000/svg">
<path d="M19.5719 12.0163C19.6161 11.9902 19.6609 11.9649 19.7066 11.9411C19.9886 8.34128 23.2802 5.64898 26.937 6.19571V1.36247L17.1939 9.93636L19.5719 12.0163Z" fill="#AC782A"/>
<path d="M31.0627 23.8745C31.5804 23.8745 32.0001 23.4547 32.0001 22.937V14.4372C32.0001 13.9203 31.5812 13.4998 31.0627 13.4998H30.4377C30.4377 12.403 30.4443 12.2988 30.4168 12.0109C30.2548 10.321 29.1427 8.9149 27.6416 8.31586C24.7233 7.14983 21.5629 9.32014 21.5629 12.4372V13.4997H21.0005C20.4827 13.4997 20.063 13.9194 20.063 14.4372V22.9369C20.063 23.4547 20.4827 23.8744 21.0005 23.8744H31.0627V23.8745ZM26.9378 18.9371C26.9378 19.4549 26.5181 19.8746 26.0003 19.8746C25.4826 19.8746 25.0628 19.4549 25.0628 18.9371V18.4371C25.0628 17.9194 25.4826 17.4997 26.0003 17.4997C26.5181 17.4997 26.9378 17.9194 26.9378 18.4371V18.9371ZM23.4379 12.4373C23.4379 11.0244 24.5874 9.87488 26.0003 9.87488C27.4132 9.87488 28.5627 11.0244 28.5627 12.4373V13.4998H23.4379V12.4373Z" fill="#AC782A"/>
<path d="M0.00102028 1.36328C0.000457793 3.8254 -0.00166715 15.8803 0.00264523 18.5099L9.79281 9.93723L0.00102028 1.36328Z" fill="#AC782A"/>
<path d="M13.4985 10.691L25.6427 0.00408056C22.5712 -0.000981794 4.46093 -0.00241896 1.29595 0.0061433L13.4985 10.691Z" fill="#AC782A"/>
<path d="M18.1874 14.4383C18.1874 14.0915 18.2508 13.7593 18.366 13.4523L15.7745 11.1856C14.0363 12.7151 14.0911 12.6784 13.974 12.7471C13.6906 12.9129 13.3254 12.9224 13.0271 12.7478C12.9117 12.6801 12.9865 12.7348 11.2159 11.1844L1.29136 19.8747C2.41026 19.8794 6.06372 19.876 18.1874 19.8757V14.4383Z" fill="#AC782A"/>
</svg>
