<svg width="26" height="31" viewBox="0 0 26 31" fill="none" xmlns="http://www.w3.org/2000/svg">
<path d="M3.13943 28.4057C3.13943 29.4635 3.99511 30.3192 5.0529 30.3192H12.2687L12.2957 15.308H3.13943V28.4057Z" fill="#AC782A"/>
<path d="M13.6168 30.3192H20.9472C22.005 30.3192 22.8607 29.4635 22.8607 28.4057V15.308H13.6438L13.6168 30.3192Z" fill="#AC782A"/>
<path d="M23.871 7.18257H16.8035C18.0401 6.67241 19.224 6.09982 19.7101 5.61371C20.9924 4.33135 20.9924 2.24562 19.7101 0.963252C19.089 0.342139 18.2632 0 17.3842 0C16.5058 0 15.6801 0.342139 15.059 0.963252C14.3621 1.6597 13.5583 3.82311 12.9995 5.53907C12.4408 3.82311 11.637 1.6597 10.9401 0.963252C10.319 0.342139 9.49328 0 8.61491 0C7.73653 0 6.91079 0.342139 6.28968 0.963252C5.00732 2.24561 5.00732 4.33135 6.28968 5.61371C6.77579 6.09982 7.95954 6.67241 9.19601 7.18257H2.12903C0.956714 7.18257 0 8.13929 0 9.3116V11.8314C0 13.0038 0.956714 13.9605 2.12903 13.9605H12.3026L12.3138 8.33848C12.5175 8.40712 12.682 8.46136 12.791 8.49689C12.8594 8.51926 12.9298 8.52978 12.9995 8.52978C13.0693 8.52978 13.1397 8.51926 13.2081 8.49689C13.3124 8.46288 13.4699 8.41094 13.6613 8.34654L13.6501 13.9605H23.871C25.0433 13.9605 26 13.0038 26 11.8314V9.3116C26 8.13928 25.0433 7.18257 23.871 7.18257ZM16.0117 1.91598C16.3782 1.54949 16.8657 1.3475 17.3842 1.3475C17.9033 1.3475 18.3909 1.54949 18.7573 1.91598C19.514 2.67263 19.514 3.90433 18.7573 4.66098C18.2211 5.19722 15.9123 6.12626 14.0154 6.79804C14.6431 4.77349 15.5031 2.42524 16.0117 1.91598ZM7.2424 1.91598C7.60889 1.54949 8.09644 1.3475 8.61491 1.3475C9.13338 1.3475 9.62093 1.54949 9.98741 1.91598C10.496 2.42458 11.3553 4.77284 11.9837 6.79804C10.0874 6.12692 7.77864 5.19722 7.2424 4.66098C6.48575 3.90433 6.48575 2.67263 7.2424 1.91598Z" fill="#AC782A"/>
</svg>
