<svg width="16" height="16" viewBox="0 0 16 16" fill="none" xmlns="http://www.w3.org/2000/svg">
<path d="M12.2707 4.68929C12.8009 4.68929 13.2307 4.25948 13.2307 3.72929C13.2307 3.19909 12.8009 2.76929 12.2707 2.76929C11.7405 2.76929 11.3107 3.19909 11.3107 3.72929C11.3107 4.25948 11.7405 4.68929 12.2707 4.68929Z" fill="white"/>
<path d="M8.00009 3.89062C7.18761 3.89062 6.39337 4.13155 5.71781 4.58295C5.04225 5.03434 4.51572 5.67592 4.20479 6.42656C3.89387 7.1772 3.81252 8.00318 3.97103 8.80005C4.12953 9.59693 4.52078 10.3289 5.0953 10.9034C5.66981 11.4779 6.40179 11.8692 7.19866 12.0277C7.99554 12.1862 8.82152 12.1048 9.57216 11.7939C10.3228 11.483 10.9644 10.9565 11.4158 10.2809C11.8672 9.60535 12.1081 8.81111 12.1081 7.99862C12.1081 6.90911 11.6753 5.86423 10.9049 5.09383C10.1345 4.32343 9.0896 3.89063 8.00009 3.89062ZM8.00009 10.6653C7.47268 10.6653 6.9571 10.5089 6.51857 10.2159C6.08004 9.92286 5.73825 9.50638 5.53641 9.01911C5.33458 8.53184 5.28177 7.99567 5.38466 7.47838C5.48756 6.9611 5.74153 6.48595 6.11447 6.11301C6.48741 5.74007 6.96257 5.48609 7.47985 5.3832C7.99713 5.2803 8.53331 5.33311 9.02058 5.53495C9.50785 5.73678 9.92433 6.07857 10.2173 6.5171C10.5104 6.95563 10.6668 7.47121 10.6668 7.99862C10.6668 8.70587 10.3858 9.38414 9.88571 9.88424C9.38561 10.3843 8.70734 10.6653 8.00009 10.6653Z" fill="white"/>
<path d="M8 1.44133C10.136 1.44133 10.3893 1.44933 11.2327 1.488C11.7399 1.49402 12.2423 1.58715 12.718 1.76333C13.0631 1.89646 13.3765 2.10036 13.6381 2.36192C13.8996 2.62348 14.1035 2.93689 14.2367 3.282C14.4128 3.75769 14.506 4.26011 14.512 4.76733C14.5507 5.61067 14.5587 5.864 14.5587 8.00067C14.5587 10.1373 14.5507 10.3893 14.512 11.2327C14.506 11.7399 14.4128 12.2423 14.2367 12.718C14.1035 13.0631 13.8996 13.3765 13.6381 13.6381C13.3765 13.8996 13.0631 14.1035 12.718 14.2367C12.2423 14.4128 11.7399 14.506 11.2327 14.512C10.3893 14.5507 10.136 14.5587 8 14.5587C5.864 14.5587 5.61067 14.5507 4.76733 14.512C4.26011 14.506 3.75769 14.4128 3.282 14.2367C2.93689 14.1035 2.62348 13.8996 2.36192 13.6381C2.10036 13.3765 1.89646 13.0631 1.76333 12.718C1.58715 12.2423 1.49402 11.7399 1.488 11.2327C1.44933 10.3893 1.44133 10.136 1.44133 8C1.44133 5.864 1.44933 5.61067 1.488 4.76733C1.49402 4.26011 1.58715 3.75769 1.76333 3.282C1.89646 2.93689 2.10036 2.62348 2.36192 2.36192C2.62348 2.10036 2.93689 1.89646 3.282 1.76333C3.75769 1.58715 4.26011 1.49402 4.76733 1.488C5.61067 1.44933 5.864 1.44133 8 1.44133ZM8 0C5.82733 0 5.55467 0.00933335 4.70133 0.048C4.03785 0.0613974 3.38144 0.18718 2.76 0.42C2.22848 0.625532 1.74577 0.939852 1.34281 1.34281C0.939852 1.74577 0.625532 2.22848 0.42 2.76C0.187106 3.38165 0.0613222 4.03829 0.048 4.702C0.00933335 5.55533 0 5.82667 0 8C0 10.1733 0.00933335 10.4453 0.048 11.2987C0.0613974 11.9622 0.18718 12.6186 0.42 13.24C0.625532 13.7715 0.939852 14.2542 1.34281 14.6572C1.74577 15.0601 2.22848 15.3745 2.76 15.58C3.38165 15.8129 4.03829 15.9387 4.702 15.952C5.55533 15.9907 5.82733 16 8 16C10.1727 16 10.4453 15.9907 11.2987 15.952C11.9624 15.9387 12.619 15.8129 13.2407 15.58C13.7722 15.3745 14.2549 15.0601 14.6579 14.6572C15.0608 14.2542 15.3751 13.7715 15.5807 13.24C15.8133 12.6183 15.9389 11.9617 15.952 11.298C15.9907 10.4447 16 10.1733 16 8C16 5.82667 15.9907 5.55467 15.952 4.70133C15.9386 4.03785 15.8128 3.38144 15.58 2.76C15.3745 2.22848 15.0601 1.74577 14.6572 1.34281C14.2542 0.939852 13.7715 0.625532 13.24 0.42C12.6183 0.187333 11.9617 0.0617754 11.298 0.0486666C10.4447 0.00866664 10.1733 0 8 0Z" fill="white"/>
</svg>
