<svg width="38" height="38" viewBox="0 0 38 38" fill="none" xmlns="http://www.w3.org/2000/svg">
<g clip-path="url(#clip0)">
<path d="M21 19.2579H21.9644V17.9999L21 19.2579Z" fill="#AB864E"/>
<path d="M32.4351 5.5648C28.8464 1.97625 24.0751 -0.00012207 19 -0.00012207C13.9249 -0.00012207 9.15362 1.97625 5.56492 5.5648C1.97637 9.1535 0 13.9248 0 18.9999C0 24.075 1.97637 28.8463 5.56492 32.435C9.15362 36.0235 13.9249 37.9999 19 37.9999C24.0751 37.9999 28.8464 36.0235 32.4351 32.435C36.0236 28.8463 38 24.075 38 18.9999C38 13.9248 36.0236 9.1535 32.4351 5.5648ZM24.9089 19.6289V21.4109H23.9864V22.7108H21.9947V21.4109H19.3006V19.6289L22.6237 15.3938H23.9865V19.6289H24.9089ZM19 31.9882C11.8383 31.9882 6.01172 26.1616 6.01172 18.9999C6.01172 11.8381 11.8383 6.0116 19 6.0116V3.97607L22.9652 7.12488L19 10.2737V8.23816C13.066 8.23816 8.23828 13.0659 8.23828 18.9999C8.23828 24.9339 13.066 29.7616 19 29.7616C24.934 29.7616 29.7617 24.9339 29.7617 18.9999H31.9883C31.9883 26.1616 26.1617 31.9882 19 31.9882ZM16.2082 17.1339C16.0963 17.0501 15.9426 17.0081 15.7469 17.0081C15.5163 17.0081 15.2978 17.0676 15.0917 17.1863C14.8855 17.3052 14.6706 17.4974 14.4471 17.7629L13.189 16.2848C13.3217 16.1381 13.4931 16.0036 13.7027 15.8812C13.9124 15.759 14.1446 15.6542 14.3998 15.5667C14.6548 15.4795 14.9256 15.4113 15.2122 15.3623C15.4987 15.3135 15.7923 15.2889 16.0928 15.2889C16.8963 15.2889 17.5062 15.455 17.922 15.7869C18.3377 16.1189 18.5458 16.5819 18.5458 17.1759C18.5458 17.3926 18.5178 17.5847 18.4619 17.7525C18.4059 17.9202 18.3309 18.0722 18.2366 18.2085C18.1423 18.3447 18.0286 18.4689 17.8959 18.5806C17.7631 18.6925 17.6234 18.7973 17.4767 18.8951C17.3018 19.014 17.1184 19.1275 16.9263 19.2358C16.734 19.3443 16.5437 19.4648 16.3549 19.5975H18.6611V21.3796H13.1367C13.1367 21.0302 13.1645 20.7227 13.2205 20.4571C13.2764 20.1916 13.3672 19.9523 13.4931 19.7389C13.6189 19.5259 13.7814 19.3353 13.9806 19.1676C14.1798 18.9999 14.4261 18.8358 14.7197 18.6749C15.0971 18.4723 15.3958 18.3098 15.6159 18.1874C15.8361 18.0652 16.002 17.9656 16.1139 17.8886C16.2256 17.8118 16.2973 17.7471 16.3288 17.6947C16.3603 17.6423 16.3759 17.5846 16.3759 17.5217C16.3759 17.3472 16.3199 17.2178 16.2082 17.1339Z" fill="#AB864E"/>
</g>
<defs>
<clipPath id="clip0">
<rect width="38" height="38" fill="white" transform="translate(0 -0.00012207)"/>
</clipPath>
</defs>
</svg>
