<svg width="38" height="38" viewBox="0 0 38 38" fill="none" xmlns="http://www.w3.org/2000/svg">
<path d="M19.0001 0C8.50658 0 0 8.50652 0 19C0 29.4935 8.50658 38 19.0001 38C29.4934 38 38 29.4935 38 19C38 8.50652 29.4934 0 19.0001 0ZM28.4643 4.93406L27.2536 6.72362C25.6425 5.63837 23.806 4.86266 21.8293 4.47981L22.2541 2.36173C24.4805 2.79227 26.5855 3.66424 28.4643 4.93406ZM19.9827 27.4324V29.6384H18.1883V27.4436C16.9065 27.3027 15.7037 26.8117 14.7993 25.9702C13.8947 25.1289 13.4809 23.8919 13.5107 22.2607L13.5565 22.2045H16.7258C16.7258 23.2299 16.9538 23.9106 17.4097 24.3404C17.8658 24.7704 18.4456 24.9857 19.1501 24.9857C19.8247 24.9857 20.3417 24.8063 20.7013 24.4465C21.0608 24.087 21.2406 23.6035 21.2406 22.9956C21.2406 22.3949 21.0682 21.9058 20.7236 21.5278C20.3789 21.1497 19.7875 20.7978 18.9499 20.4714C17.304 19.8708 16.0825 19.202 15.2856 18.4642C14.4886 17.7266 14.0903 16.6868 14.0903 15.345C14.0903 14.0994 14.4585 13.0784 15.2552 12.2814C16.0521 11.4845 17.1626 11.0155 18.4444 10.8745V8.48973H20.2388V10.8966C21.5206 11.0895 22.5857 11.6344 23.3308 12.5313C24.0759 13.4284 24.4495 14.579 24.4347 16.0097L24.41 16.052H21.2406C21.2406 15.1548 21.0608 14.516 20.7013 14.0415C20.3416 13.5671 19.8506 13.3364 19.2279 13.3364C18.5901 13.3364 18.1158 13.5231 17.8045 13.8901C17.493 14.257 17.3376 14.7464 17.3376 15.3542C17.3376 15.9324 17.5024 16.4022 17.8323 16.7617C18.1621 17.1214 18.7683 17.4758 19.6506 17.8241C21.2889 18.4691 22.503 19.1587 23.2924 19.8927C24.082 20.6267 24.4768 21.6536 24.4768 22.9731C24.4768 24.2631 24.046 25.2937 23.2528 26.0647C22.4596 26.8359 21.3926 27.2917 19.9827 27.4324ZM15.7462 2.36173L16.1553 4.48289C14.1792 4.86792 12.3435 5.6453 10.7335 6.73234L9.53595 4.93406C11.4147 3.66424 13.5196 2.79227 15.7462 2.36173ZM4.93409 9.53576L6.72367 10.7465C5.63841 12.3575 4.86283 14.1939 4.47997 16.1706L2.36175 15.7458C2.79242 13.5195 3.66439 11.4145 4.93409 9.53576ZM4.93396 28.464C3.66413 26.5852 2.79229 24.4802 2.36175 22.2538L4.48292 21.8447C4.86795 23.8208 5.64533 25.6566 6.73238 27.2666L4.93396 28.464ZM9.5357 33.0658L10.7464 31.2762C12.3575 32.3616 14.194 33.1373 16.1708 33.5202L15.746 35.6384C13.5195 35.2076 11.4144 34.3358 9.5357 33.0658ZM22.254 35.6384L21.8448 33.5172C23.821 33.1322 25.6568 32.3548 27.2669 31.2677L28.4644 33.0659C26.5855 34.3359 24.4804 35.2079 22.254 35.6384ZM33.0662 28.4641L31.2766 27.2534C32.3618 25.6424 33.1374 23.8058 33.5203 21.8292L35.6384 22.254C35.2077 24.4803 34.3359 26.5853 33.0662 28.4641ZM33.5172 16.1552C33.1322 14.1791 32.3548 12.3433 31.2676 10.7332L33.0659 9.53563C34.3357 11.4144 35.2077 13.5195 35.6383 15.7459L33.5172 16.1552Z" fill="#AB864E"/>
</svg>
