<svg width="38" height="38" viewBox="0 0 38 38" fill="none" xmlns="http://www.w3.org/2000/svg">
<path d="M19 0C8.52342 0 0 8.52342 0 19C0 29.4766 8.52342 38 18.9998 38C29.4764 38 37.9998 29.4766 37.9998 19C37.9998 8.52342 29.4766 0 19 0ZM17.4718 1.47927H20.4192V4.42669H17.4718V1.47927ZM32.2692 19C32.2692 26.3168 26.3166 32.2693 19 32.2693C11.6834 32.2693 5.73092 26.3166 5.73092 19C5.73092 11.6834 11.6835 5.73075 19 5.73075C26.3166 5.73075 32.2692 11.6834 32.2692 19ZM7.65312 5.56897L9.73727 7.65312L7.65312 9.73727L5.56897 7.65312L7.65312 5.56897ZM4.37216 20.4737H1.42475V17.5263H4.37216V20.4737ZM7.65312 32.4312L5.56897 30.347L7.65312 28.2629L9.73727 30.347L7.65312 32.4312ZM20.4192 36.5207H17.4718V33.5733H20.4192V36.5207ZM30.3469 32.4312L28.2627 30.347L30.3469 28.2629L32.431 30.347L30.3469 32.4312ZM30.3469 9.73727L28.2627 7.65312L30.3469 5.56897L32.431 7.65312L30.3469 9.73727ZM33.5188 20.4737V17.5263H36.4662V20.4737H33.5188Z" fill="#AB864E"/>
<circle cx="18.8072" cy="18.8072" r="10.8072" fill="#AB864E"/>
<path d="M18.3887 24.28C17.6607 24.28 17.0494 24.154 16.5547 23.902C16.0694 23.65 15.6167 23.272 15.1967 22.768L15.6027 22.404C15.9387 22.824 16.326 23.1367 16.7647 23.342C17.2034 23.5473 17.6374 23.65 18.0667 23.65C18.6454 23.65 19.112 23.4633 19.4667 23.09C19.8214 22.7073 19.9987 22.124 19.9987 21.34C19.9987 20.6213 19.8074 20.0847 19.4247 19.73C19.042 19.366 18.496 19.184 17.7867 19.184C17.348 19.184 16.7647 19.2913 16.0367 19.506L15.4767 18.96L15.6307 14.76H21.0767V15.376H17.2547L17.1287 18.61L17.5487 18.582C18.0247 18.554 18.2907 18.54 18.3467 18.54C18.916 18.54 19.4714 18.6287 20.0127 18.806C20.5634 18.974 21.0254 19.268 21.3987 19.688C21.772 20.108 21.9587 20.6587 21.9587 21.34C21.9587 22.068 21.7674 22.6513 21.3847 23.09C21.002 23.5287 20.5354 23.8367 19.9847 24.014C19.4434 24.1913 18.9114 24.28 18.3887 24.28Z" fill="#171717"/>
</svg>
