<svg width="38" height="36" viewBox="0 0 38 36" fill="none" xmlns="http://www.w3.org/2000/svg">
<path d="M37.2571 9.37435L19.3704 3.06346C19.1308 2.97885 18.8693 2.97885 18.6297 3.06346L0.742931 9.37435C0.298212 9.53125 0.00059464 9.95133 8.89662e-07 10.4229C-0.00059286 10.8945 0.296059 11.3152 0.740407 11.4732L18.6271 17.832C18.7477 17.8749 18.8739 17.8964 19 17.8964C19.1262 17.8964 19.2523 17.8749 19.3729 17.832L37.2596 11.4732C37.7039 11.3152 38.0005 10.8945 38 10.4229C37.9994 9.95133 37.7018 9.53125 37.2571 9.37435Z" fill="#AB864E"/>
<path d="M35.3491 24.7108V15L33.1226 15.7915V24.7108C32.4519 25.0968 32 25.8201 32 26.6495C32 27.4788 32.4519 28.2021 33.1226 28.5881V34.0592C33.1226 34.6741 33.621 35.1725 34.2358 35.1725C34.8507 35.1725 35.3491 34.6741 35.3491 34.0592V28.5882C36.0198 28.2023 36.4717 27.4788 36.4717 26.6495C36.4717 25.8201 36.0198 25.0968 35.3491 24.7108Z" fill="#AB864E"/>
<path d="M19.1741 20.7677C18.7919 20.7677 18.4156 20.7028 18.0554 20.5748L8 17V21.899C8 23.0976 9.25036 24.1112 11.7164 24.9116C13.8658 25.6092 16.5144 25.9935 19.1741 25.9935C21.8338 25.9935 24.4823 25.6092 26.6318 24.9116C29.0978 24.1112 30.3482 23.0976 30.3482 21.899V17L20.2929 20.5748C19.9326 20.7028 19.5562 20.7677 19.1741 20.7677Z" fill="#AB864E"/>
</svg>
