<svg width="36" height="36" viewBox="0 0 36 36" fill="none" xmlns="http://www.w3.org/2000/svg">
<g clip-path="url(#clip0)">
<path d="M7.58669 6.74988H19.6107L22.2057 4.67388C23.0892 3.96888 23.4192 2.82438 23.0457 1.75638C22.6722 0.688378 21.7017 -0.00012207 20.5737 -0.00012207H6.62369C5.49569 -0.00012207 4.52519 0.689878 4.15169 1.75638C3.77819 2.82288 4.10819 3.96888 4.99019 4.67238L7.58669 6.74988Z" fill="#AB864E"/>
<path d="M25.5 18.2699L24.51 19.2599C23.88 19.9049 23.025 20.2499 22.125 20.2499C21.225 20.2499 20.37 19.9049 19.74 19.2599C18.42 17.9399 18.42 15.8099 19.74 14.4899L22.215 12.0149C21.45 10.8899 20.61 9.86988 19.71 8.99988H7.29C3.18 13.0199 0 20.0849 0 25.8749C0 30.9149 2.67 35.9999 8.625 35.9999H18.75C23.835 35.9999 27 32.1149 27 25.8749C27 23.4599 26.445 20.8199 25.5 18.2699ZM12.93 21.3749H14.07C15.825 21.3749 17.25 22.7999 17.25 24.5549C17.25 26.1299 16.11 27.4349 14.625 27.6899V28.8749C14.625 29.4899 14.115 29.9999 13.5 29.9999C12.885 29.9999 12.375 29.4899 12.375 28.8749V27.7499H10.875C10.26 27.7499 9.75 27.2399 9.75 26.6249C9.75 26.0099 10.26 25.4999 10.875 25.4999H14.07C14.58 25.4999 15 25.0799 15 24.5699C15 24.0449 14.58 23.6249 14.07 23.6249H12.93C11.175 23.6249 9.75 22.1999 9.75 20.4449C9.75 18.8699 10.89 17.5649 12.375 17.3099V16.1249C12.375 15.5099 12.885 14.9999 13.5 14.9999C14.115 14.9999 14.625 15.5099 14.625 16.1249V17.2499H16.125C16.74 17.2499 17.25 17.7599 17.25 18.3749C17.25 18.9899 16.74 19.4999 16.125 19.4999H12.93C12.42 19.4999 12 19.9199 12 20.4299C12 20.9549 12.42 21.3749 12.93 21.3749Z" fill="#AB864E"/>
<path d="M33.3751 8.99988H29.6251C29.1706 8.99988 28.7596 9.27438 28.5856 9.69438C28.4116 10.1144 28.5076 10.5989 28.8301 10.9199L29.8021 11.8919L28.3426 13.2389L26.4331 12.1469C25.9921 11.8949 25.4386 11.9699 25.0801 12.3299L21.3301 16.0799C20.8906 16.5194 20.8906 17.2319 21.3301 17.6714C21.5491 17.8904 21.8371 18.0014 22.1251 18.0014C22.4131 18.0014 22.7011 17.8919 22.9201 17.6714L26.0626 14.5289L27.9406 15.6029C28.3681 15.8474 28.9021 15.7859 29.2621 15.4529L31.3936 13.4864L32.5786 14.6714C32.7946 14.8859 33.0826 14.9999 33.3751 14.9999C33.5206 14.9999 33.6661 14.9714 33.8056 14.9144C34.2256 14.7404 34.5001 14.3294 34.5001 13.8749V10.1249C34.5001 9.50388 33.9961 8.99988 33.3751 8.99988Z" fill="#AB864E"/>
</g>
<defs>
<clipPath id="clip0">
<rect width="36" height="36" fill="white" transform="translate(0 -0.00012207)"/>
</clipPath>
</defs>
</svg>
