<svg width="160" height="49" fill="none" xmlns="http://www.w3.org/2000/svg"><path d="M77.29 11.88c-.29.415-.694.725-1.214.932-.515.204-1.117.305-1.804.305-.696 0-1.313-.162-1.852-.486a3.298 3.298 0 01-1.254-1.395c-.293-.601-.443-1.299-.451-2.091V8.4c0-1.285.299-2.28.896-2.988.602-.707 1.446-1.06 2.532-1.06.89 0 1.607.228 2.15.685.543.453.875 1.098.996 1.934h-1.125c-.21-1.13-.883-1.694-2.016-1.694-.754 0-1.326.266-1.716.797-.387.528-.582 1.293-.586 2.297v.697c0 .957.218 1.72.656 2.286.438.562 1.03.843 1.775.843.422 0 .791-.047 1.108-.14a1.71 1.71 0 00.785-.475V9.666h-1.975v-.914h3.094v3.129zm6.702-2.823h-3.697v3.023h4.295V13h-5.42V4.469h5.361v.926h-4.236v2.742h3.697v.92zm8.01-3.662H89.26V13h-1.12V5.395h-2.736v-.926h6.598v.926zM97.217 13h-1.125V4.469h1.125V13zm7.781-7.605h-2.742V13h-1.119V5.395H98.4v-.926h6.598v.926zm10.57 3.615c0 .836-.14 1.566-.422 2.191-.281.621-.679 1.096-1.195 1.424-.515.328-1.117.492-1.805.492-.671 0-1.267-.164-1.787-.492-.519-.332-.923-.803-1.213-1.412-.285-.613-.431-1.322-.439-2.127V8.47c0-.82.143-1.545.428-2.174.285-.629.687-1.11 1.207-1.442.523-.335 1.121-.503 1.793-.503.683 0 1.285.166 1.804.498.524.328.926.806 1.207 1.435.282.625.422 1.354.422 2.186v.539zm-1.119-.551c0-1.012-.203-1.787-.609-2.326-.406-.543-.975-.815-1.705-.815-.711 0-1.272.272-1.682.815-.406.539-.615 1.289-.627 2.25v.627c0 .98.205 1.752.615 2.314.414.559.983.838 1.705.838.727 0 1.29-.264 1.688-.79.398-.532.604-1.292.615-2.28v-.633zM123.812 13h-1.13l-4.295-6.574V13h-1.131V4.469h1.131l4.306 6.603V4.47h1.119V13zM83.857 36.133l2.407-11.774h2.696L85.35 40h-2.599l-2.976-11.419L76.735 40h-2.61l-3.61-15.64h2.697l2.428 11.75 2.986-11.752h2.277l2.954 11.774zM93.472 40h-2.61V28.377h2.61V40zM90.7 25.358c0-.4.126-.734.376-.999.258-.265.623-.397 1.096-.397.472 0 .838.132 1.096.397.257.265.386.598.386 1 0 .393-.129.723-.386.988-.258.258-.624.386-1.096.386-.473 0-.838-.128-1.096-.386a1.382 1.382 0 01-.376-.989zm8.046 3.019l.075 1.343c.86-1.039 1.988-1.558 3.384-1.558 2.421 0 3.652 1.386 3.695 4.157V40h-2.61v-7.53c0-.738-.161-1.282-.483-1.633-.315-.358-.835-.537-1.558-.537-1.053 0-1.837.476-2.352 1.428V40h-2.61V28.377h2.46zm9.335 5.726c0-1.79.415-3.227 1.246-4.308.831-1.089 1.944-1.633 3.341-1.633 1.232 0 2.227.43 2.986 1.29V23.5h2.611V40h-2.364l-.129-1.203c-.78.945-1.822 1.418-3.126 1.418-1.36 0-2.463-.548-3.308-1.644-.838-1.095-1.257-2.585-1.257-4.468zm2.61.225c0 1.182.226 2.106.677 2.772.458.658 1.107.988 1.944.988 1.068 0 1.848-.476 2.342-1.429v-4.963c-.48-.93-1.253-1.396-2.32-1.396-.845 0-1.497.336-1.955 1.01-.458.666-.688 1.672-.688 3.018zm9.808-.247c0-1.139.226-2.163.677-3.072.451-.917 1.085-1.619 1.901-2.106.817-.494 1.755-.74 2.815-.74 1.568 0 2.839.504 3.813 1.514.981 1.01 1.511 2.349 1.59 4.017l.011.613c0 1.145-.222 2.17-.666 3.072-.437.902-1.067 1.6-1.891 2.095-.816.494-1.762.74-2.836.74-1.64 0-2.954-.543-3.942-1.632-.981-1.096-1.472-2.553-1.472-4.372v-.129zm2.61.226c0 1.196.247 2.134.742 2.814.494.673 1.181 1.01 2.062 1.01.881 0 1.565-.344 2.052-1.031.494-.688.741-1.694.741-3.019 0-1.174-.254-2.105-.763-2.793-.501-.687-1.185-1.031-2.051-1.031-.853 0-1.529.34-2.031 1.02-.501.674-.752 1.683-.752 3.03zm20.615 2.094l1.847-8.024h2.546L144.948 40H142.8l-2.492-7.981-2.45 7.981h-2.148l-3.18-11.623h2.546l1.88 7.938 2.385-7.938h1.966l2.417 8.024zm12.654.44c0-.465-.193-.82-.58-1.063-.38-.243-1.013-.458-1.902-.644-.888-.186-1.629-.423-2.223-.71-1.304-.63-1.955-1.542-1.955-2.738 0-1.003.422-1.84 1.267-2.514.845-.673 1.92-1.01 3.223-1.01 1.389 0 2.51.344 3.362 1.031.86.688 1.289 1.58 1.289 2.675h-2.61a1.59 1.59 0 00-.559-1.246c-.372-.337-.866-.505-1.482-.505-.573 0-1.042.133-1.407.398-.358.265-.537.62-.537 1.063 0 .401.168.713.505.935.336.222 1.016.447 2.041.677 1.024.221 1.826.49 2.406.805.587.308 1.02.68 1.3 1.117.286.437.429.967.429 1.59 0 1.046-.433 1.894-1.299 2.546-.867.645-2.002.967-3.406.967-.952 0-1.801-.172-2.546-.516-.744-.343-1.325-.816-1.74-1.418a3.359 3.359 0 01-.623-1.944h2.535c.036.616.269 1.092.698 1.429.43.33.999.494 1.708.494.688 0 1.211-.13 1.569-.387.358-.265.537-.609.537-1.031z" fill="#fff"/><g clip-path="url(#clip0)" fill="#E8E8E8"><path d="M0 12.914v10.938h15.313V11L0 12.914zm18-2.726v13.124h17.5V8L18 10.188zM18 26v13.125l17.5 2.188V26H18zM0 26v10.938l15.313 1.914V26H0z"/></g><defs><clipPath id="clip0"><path fill="#fff" transform="translate(0 7)" d="M0 0h35v35H0z"/></clipPath></defs></svg>