<svg width="177" height="49" fill="none" xmlns="http://www.w3.org/2000/svg"><path d="M66.29 11.88c-.29.415-.694.725-1.214.932-.515.204-1.117.305-1.804.305-.696 0-1.313-.162-1.852-.486a3.298 3.298 0 01-1.254-1.395c-.293-.601-.443-1.299-.451-2.091V8.4c0-1.285.299-2.28.896-2.988.602-.707 1.446-1.06 2.532-1.06.89 0 1.607.228 2.15.685.543.453.875 1.098.996 1.934h-1.125c-.21-1.13-.883-1.694-2.016-1.694-.754 0-1.326.266-1.716.797-.387.528-.582 1.293-.586 2.297v.697c0 .957.219 1.72.656 2.286.438.562 1.03.843 1.775.843.422 0 .791-.047 1.108-.14a1.71 1.71 0 00.785-.475V9.666h-1.975v-.914h3.094v3.129zm6.702-2.823h-3.697v3.023h4.295V13h-5.42V4.469h5.361v.926h-4.236v2.742h3.697v.92zm8.01-3.662H78.26V13h-1.12V5.395h-2.736v-.926h6.598v.926zM86.217 13h-1.125V4.469h1.125V13zm7.781-7.605h-2.742V13h-1.12V5.395H87.4v-.926h6.598v.926zm10.57 3.615c0 .836-.14 1.566-.422 2.191-.281.621-.679 1.096-1.195 1.424-.515.328-1.117.492-1.805.492-.671 0-1.267-.164-1.787-.492-.52-.332-.923-.803-1.212-1.412-.286-.613-.432-1.322-.44-2.127V8.47c0-.82.143-1.545.428-2.174.285-.629.687-1.11 1.207-1.442.523-.335 1.121-.503 1.793-.503.683 0 1.285.166 1.804.498.524.328.926.806 1.207 1.435.282.625.422 1.354.422 2.186v.539zm-1.119-.551c0-1.012-.203-1.787-.609-2.326-.406-.543-.975-.815-1.705-.815-.711 0-1.272.272-1.682.815-.406.539-.615 1.289-.627 2.25v.627c0 .98.205 1.752.615 2.314.415.559.983.838 1.705.838.727 0 1.29-.264 1.688-.79.398-.532.604-1.292.615-2.28v-.633zM112.812 13h-1.13l-4.295-6.574V13h-1.131V4.469h1.131l4.306 6.603V4.47h1.119V13zM72.578 37.97c-.566.737-1.35 1.296-2.352 1.675-1.003.38-2.142.57-3.416.57-1.311 0-2.471-.297-3.48-.892-1.01-.594-1.791-1.443-2.343-2.546-.544-1.11-.827-2.402-.848-3.878v-1.224c0-2.364.565-4.208 1.697-5.532 1.131-1.332 2.71-1.998 4.737-1.998 1.74 0 3.123.43 4.147 1.289s1.64 2.098 1.847 3.716h-2.664c-.3-1.883-1.393-2.825-3.276-2.825-1.218 0-2.145.44-2.782 1.322-.63.873-.956 2.159-.978 3.856v1.203c0 1.69.355 3.004 1.064 3.942.716.931 1.708 1.397 2.975 1.397 1.39 0 2.378-.315 2.965-.945v-3.062h-3.223v-2.062h5.93v5.994zm2.245-3.889c0-1.139.226-2.163.677-3.072.451-.917 1.085-1.619 1.901-2.106.817-.494 1.755-.74 2.815-.74 1.568 0 2.84.504 3.813 1.514.981 1.01 1.511 2.349 1.59 4.017l.01.613c0 1.145-.221 2.17-.665 3.072-.437.902-1.067 1.6-1.89 2.095-.817.494-1.763.74-2.837.74-1.64 0-2.954-.543-3.942-1.632-.981-1.096-1.472-2.553-1.472-4.372v-.129zm2.61.226c0 1.196.248 2.134.742 2.814.494.673 1.181 1.01 2.062 1.01.881 0 1.565-.344 2.052-1.031.494-.688.741-1.694.741-3.019 0-1.174-.254-2.105-.762-2.793-.502-.687-1.186-1.031-2.052-1.031-.852 0-1.53.34-2.03 1.02-.502.674-.752 1.683-.752 3.03zm9.916-.226c0-1.139.225-2.163.676-3.072.452-.917 1.085-1.619 1.902-2.106.816-.494 1.754-.74 2.814-.74 1.569 0 2.84.504 3.814 1.514.98 1.01 1.51 2.349 1.59 4.017l.01.613c0 1.145-.222 2.17-.666 3.072-.437.902-1.067 1.6-1.89 2.095-.817.494-1.762.74-2.836.74-1.64 0-2.954-.543-3.943-1.632-.98-1.096-1.471-2.553-1.471-4.372v-.129zm2.61.226c0 1.196.247 2.134.741 2.814.494.673 1.182 1.01 2.063 1.01.88 0 1.564-.344 2.051-1.031.495-.688.742-1.694.742-3.019 0-1.174-.255-2.105-.763-2.793-.501-.687-1.185-1.031-2.052-1.031-.852 0-1.529.34-2.03 1.02-.501.674-.752 1.683-.752 3.03zm9.947-.205c0-1.804.423-3.244 1.268-4.318.852-1.081 1.98-1.622 3.384-1.622 1.324 0 2.366.462 3.126 1.386l.118-1.171h2.352v11.268c0 1.526-.476 2.729-1.428 3.61-.946.88-2.224 1.321-3.835 1.321a6.172 6.172 0 01-2.503-.537c-.81-.35-1.425-.813-1.848-1.386l1.235-1.568c.802.952 1.791 1.429 2.965 1.429.867 0 1.551-.237 2.052-.71.501-.465.752-1.152.752-2.062v-.784c-.752.838-1.755 1.257-3.008 1.257-1.361 0-2.474-.54-3.341-1.622-.859-1.082-1.289-2.578-1.289-4.49zm2.6.226c0 1.167.236 2.088.709 2.76.48.667 1.142 1 1.987 1 1.053 0 1.833-.451 2.342-1.354v-5.113c-.494-.88-1.268-1.321-2.32-1.321-.86 0-1.529.34-2.009 1.02-.473.68-.709 1.683-.709 3.008zM115.622 40h-2.61V23.5h2.61V40zm7.971.215c-1.655 0-2.997-.52-4.029-1.558-1.024-1.045-1.536-2.435-1.536-4.168v-.322c0-1.16.222-2.195.666-3.105.452-.916 1.082-1.629 1.891-2.137a4.984 4.984 0 012.707-.763c1.583 0 2.804.505 3.663 1.515.867 1.01 1.3 2.438 1.3 4.286v1.053h-7.595c.079.96.398 1.718.956 2.277.566.559 1.275.838 2.127.838 1.196 0 2.17-.483 2.922-1.45l1.407 1.342a4.724 4.724 0 01-1.869 1.622c-.773.38-1.643.57-2.61.57zm-.312-9.958c-.716 0-1.296.25-1.74.752-.437.501-.716 1.2-.838 2.094h4.974v-.193c-.058-.873-.29-1.532-.698-1.976-.409-.452-.974-.677-1.698-.677zm15.458 3.931V40h-2.718V24.36h5.984c1.747 0 3.133.454 4.157 1.364 1.031.91 1.547 2.112 1.547 3.609 0 1.533-.505 2.725-1.515 3.577-1.002.852-2.409 1.279-4.221 1.279h-3.234zm0-2.18h3.266c.967 0 1.704-.226 2.213-.677.508-.458.762-1.117.762-1.976 0-.846-.257-1.519-.773-2.02-.516-.509-1.225-.77-2.127-.784h-3.341v5.457zM152.618 40h-2.61V23.5h2.61V40zm9.797 0c-.115-.222-.215-.584-.301-1.085-.83.867-1.847 1.3-3.051 1.3-1.167 0-2.119-.333-2.857-1-.738-.665-1.106-1.489-1.106-2.47 0-1.239.458-2.188 1.375-2.847.923-.666 2.241-.999 3.953-.999h1.6v-.762c0-.602-.168-1.082-.505-1.44-.336-.365-.848-.548-1.536-.548-.594 0-1.081.15-1.461.452-.379.293-.569.67-.569 1.128h-2.61c0-.638.211-1.232.633-1.784.423-.558.996-.995 1.719-1.31.731-.315 1.544-.473 2.439-.473 1.36 0 2.445.344 3.255 1.031.809.68 1.224 1.64 1.246 2.88v5.242c0 1.045.146 1.88.44 2.502V40h-2.664zm-2.868-1.88a2.94 2.94 0 001.45-.376c.458-.25.802-.587 1.031-1.01v-2.191h-1.407c-.967 0-1.694.168-2.181.505-.487.336-.73.813-.73 1.429 0 .5.165.902.494 1.203.337.293.784.44 1.343.44zm11.72-1.858l2.363-7.885h2.782l-4.619 13.385c-.709 1.955-1.912 2.932-3.609 2.932-.38 0-.799-.064-1.257-.193v-2.02l.494.033c.659 0 1.153-.122 1.482-.366.337-.236.602-.637.795-1.203l.376-.999-4.082-11.569h2.815l2.46 7.885z" fill="#fff"/><path d="M6.378 6.576c-1.382-.779-3.005-.76-4.378.011l16.095 15.13 5.407-5.51L6.378 6.576zM.618 8A4.255 4.255 0 000 10.198v27.327c0 .77.205 1.503.576 2.144l16.186-16.494L.618 8zm30.335 11.9L25.796 17 20 22.904l7.103 6.675 3.852-2.167c1.387-.782 2.217-2.186 2.217-3.757-.002-1.57-.83-2.974-2.219-3.755zM18.23 25L2 41.539c.704.41 1.477.625 2.254.625a4.47 4.47 0 002.197-.582L24.858 31.23 18.23 25z" fill="#E8E8E8"/></svg>