<svg width="156" height="49" fill="none" xmlns="http://www.w3.org/2000/svg"><path d="M59.99 13V4.469h2.408c.743 0 1.399.164 1.97.492a3.31 3.31 0 011.318 1.4c.312.606.47 1.301.474 2.086v.545c0 .805-.156 1.51-.469 2.115a3.254 3.254 0 01-1.33 1.395c-.574.324-1.244.49-2.01.498h-2.36zm1.125-7.605v6.685H62.3c.867 0 1.54-.27 2.021-.809.485-.539.727-1.306.727-2.302V8.47c0-.97-.229-1.721-.686-2.256-.453-.54-1.097-.813-1.933-.82h-1.313zm6.293 4.376c0-.62.121-1.18.364-1.675a2.758 2.758 0 011.019-1.149 2.79 2.79 0 011.494-.404c.863 0 1.56.299 2.092.896.535.598.803 1.393.803 2.385V9.9c0 .618-.12 1.172-.358 1.665a2.67 2.67 0 01-1.013 1.142c-.438.273-.942.41-1.512.41-.86 0-1.557-.299-2.092-.896-.531-.598-.797-1.389-.797-2.373V9.77zm1.09.13c0 .703.162 1.267.486 1.693.329.426.766.638 1.313.638.55 0 .988-.214 1.312-.644.325-.434.487-1.04.487-1.817 0-.695-.166-1.257-.498-1.687a1.564 1.564 0 00-1.313-.65c-.535 0-.967.212-1.295.638-.328.426-.492 1.035-.492 1.828zm11.654 1.605l1.22-4.846h1.083L80.61 13h-.878L78.19 8.195 76.69 13h-.88l-1.84-6.34h1.079l1.248 4.746 1.476-4.746h.874l1.505 4.846zm4.436-4.846l.035.797c.484-.61 1.117-.914 1.898-.914 1.34 0 2.016.756 2.028 2.268V13h-1.084V8.805c-.004-.457-.11-.795-.317-1.014-.203-.219-.521-.328-.955-.328-.351 0-.66.094-.925.281a1.91 1.91 0 00-.621.738V13h-1.085V6.66h1.026zM91.36 13h-1.084V4h1.084v9zm1.453-3.229c0-.62.122-1.18.364-1.675a2.758 2.758 0 011.02-1.149 2.79 2.79 0 011.493-.404c.864 0 1.561.299 2.092.896.535.598.803 1.393.803 2.385V9.9c0 .618-.12 1.172-.358 1.665a2.67 2.67 0 01-1.013 1.142c-.438.273-.942.41-1.512.41-.86 0-1.556-.299-2.092-.896-.53-.598-.797-1.389-.797-2.373V9.77zm1.09.13c0 .703.162 1.267.487 1.693.328.426.765.638 1.312.638.55 0 .988-.214 1.313-.644.324-.434.486-1.04.486-1.817 0-.695-.166-1.257-.498-1.687a1.564 1.564 0 00-1.313-.65c-.535 0-.966.212-1.294.638-.329.426-.493 1.035-.493 1.828zM103.86 13c-.062-.125-.113-.348-.152-.668-.504.523-1.105.785-1.805.785-.625 0-1.138-.176-1.541-.527a1.729 1.729 0 01-.597-1.348c0-.66.25-1.172.75-1.535.504-.367 1.211-.55 2.121-.55h1.054v-.499c0-.379-.113-.68-.339-.902-.227-.227-.561-.34-1.002-.34-.387 0-.711.098-.973.293-.262.195-.393.432-.393.709h-1.09c0-.316.112-.621.335-.914a2.31 2.31 0 01.914-.703 3.09 3.09 0 011.271-.258c.731 0 1.303.184 1.717.55.414.364.629.866.644 1.507v2.918c0 .582.075 1.044.223 1.388V13h-1.137zm-1.798-.826a1.9 1.9 0 00.966-.264 1.59 1.59 0 00.662-.685V9.924h-.849c-1.328 0-1.992.389-1.992 1.166 0 .34.113.605.34.797.226.191.517.287.873.287zm4.148-2.397c0-.972.23-1.754.691-2.343.461-.594 1.065-.891 1.811-.891.742 0 1.33.254 1.764.762V4h1.084v9h-.997l-.052-.68c-.434.532-1.037.797-1.811.797-.734 0-1.334-.3-1.799-.902-.461-.602-.691-1.387-.691-2.356v-.082zm1.084.123c0 .72.148 1.282.445 1.688.297.406.707.61 1.231.61.687 0 1.189-.31 1.506-.927V8.36c-.325-.597-.823-.896-1.495-.896-.531 0-.945.205-1.242.615-.297.41-.445 1.018-.445 1.822zm8.643-.129c0-.62.121-1.18.363-1.675a2.76 2.76 0 011.019-1.149c.438-.27.936-.404 1.494-.404.864 0 1.561.299 2.092.896.535.598.803 1.393.803 2.385V9.9c0 .618-.119 1.172-.357 1.665a2.675 2.675 0 01-1.014 1.142c-.438.273-.941.41-1.512.41-.859 0-1.556-.299-2.092-.896-.531-.598-.796-1.389-.796-2.373V9.77zm1.089.13c0 .703.163 1.267.487 1.693.328.426.765.638 1.312.638.551 0 .988-.214 1.313-.644.324-.434.486-1.04.486-1.817 0-.695-.166-1.257-.498-1.687a1.564 1.564 0 00-1.313-.65c-.535 0-.966.212-1.294.638-.329.426-.493 1.035-.493 1.828zm7.067-3.24l.035.796c.484-.61 1.117-.914 1.898-.914 1.34 0 2.016.756 2.028 2.268V13h-1.084V8.805c-.004-.457-.11-.795-.317-1.014-.203-.219-.521-.328-.955-.328-.351 0-.66.094-.926.281a1.92 1.92 0 00-.621.738V13h-1.084V6.66h1.026zm10.043-1.536V6.66h1.183v.838h-1.183v3.932c0 .254.053.445.158.574.105.125.285.187.539.187.125 0 .297-.023.516-.07V13a3.151 3.151 0 01-.832.117c-.485 0-.85-.146-1.096-.44-.246-.292-.369-.708-.369-1.247V7.498h-1.155V6.66h1.155V5.125h1.084zm3.539 2.303c.48-.59 1.105-.885 1.875-.885 1.34 0 2.015.756 2.027 2.268V13h-1.084V8.805c-.004-.457-.109-.795-.316-1.014-.203-.219-.522-.328-.955-.328-.352 0-.66.094-.926.281a1.903 1.903 0 00-.621.738V13h-1.084V4h1.084v3.428zm8.156 5.69c-.859 0-1.559-.282-2.098-.845-.539-.566-.808-1.322-.808-2.267v-.2c0-.628.119-1.189.357-1.681a2.811 2.811 0 011.008-1.16 2.535 2.535 0 011.406-.422c.825 0 1.465.271 1.922.814.457.543.686 1.32.686 2.332v.452h-4.295c.015.625.197 1.13.545 1.517.351.383.797.574 1.336.574.382 0 .707-.078.972-.234.266-.156.498-.363.698-.621l.662.516c-.532.816-1.328 1.224-2.391 1.224zm-.135-5.684c-.437 0-.804.16-1.101.48-.297.316-.481.762-.551 1.336h3.176v-.082c-.031-.55-.18-.977-.446-1.277-.265-.305-.625-.457-1.078-.457zM69.345 36.358h-6.059L62.02 40h-2.826l5.909-15.64h2.438L73.459 40h-2.836l-1.278-3.642zm-5.296-2.191h4.533l-2.267-6.488-2.266 6.488zm20.603.14c0 1.797-.408 3.233-1.224 4.307-.817 1.067-1.912 1.6-3.287 1.6-1.275 0-2.296-.418-3.062-1.256v5.51h-2.61v-16.09h2.406l.107 1.182c.767-.931 1.809-1.397 3.126-1.397 1.418 0 2.528.53 3.33 1.59.81 1.053 1.214 2.517 1.214 4.393v.162zm-2.6-.226c0-1.16-.232-2.08-.698-2.76-.458-.681-1.117-1.021-1.976-1.021-1.067 0-1.833.44-2.299 1.321v5.156c.473.903 1.246 1.354 2.32 1.354.831 0 1.48-.333 1.945-1 .472-.672.709-1.69.709-3.05zm14.997.226c0 1.797-.408 3.233-1.225 4.307-.816 1.067-1.912 1.6-3.287 1.6-1.275 0-2.295-.418-3.061-1.256v5.51h-2.61v-16.09h2.406l.107 1.182c.766-.931 1.808-1.397 3.126-1.397 1.418 0 2.528.53 3.33 1.59.81 1.053 1.214 2.517 1.214 4.393v.162zm-2.6-.226c0-1.16-.233-2.08-.698-2.76-.458-.681-1.117-1.021-1.977-1.021-1.067 0-1.833.44-2.298 1.321v5.156c.472.903 1.246 1.354 2.32 1.354.83 0 1.479-.333 1.944-1 .473-.672.71-1.69.71-3.05zm18.724 1.89c0-.687-.244-1.217-.731-1.59-.479-.372-1.35-.748-2.61-1.127-1.26-.38-2.263-.802-3.008-1.268-1.425-.895-2.137-2.062-2.137-3.502 0-1.26.512-2.299 1.536-3.115 1.031-.816 2.367-1.224 4.006-1.224 1.089 0 2.059.2 2.912.601.852.401 1.521.974 2.008 1.719a4.37 4.37 0 01.731 2.46h-2.707c0-.817-.258-1.454-.774-1.912-.508-.466-1.239-.699-2.191-.699-.888 0-1.579.19-2.073.57-.487.38-.731.91-.731 1.59 0 .573.265 1.052.795 1.44.53.379 1.404.751 2.621 1.116 1.218.358 2.195.77 2.933 1.236.738.458 1.278.988 1.622 1.59.344.594.516 1.292.516 2.094 0 1.304-.502 2.342-1.504 3.115-.996.767-2.349 1.15-4.061 1.15-1.131 0-2.173-.208-3.126-.623-.945-.423-1.683-1.003-2.213-1.74-.522-.738-.784-1.597-.784-2.579h2.718c0 .888.294 1.576.881 2.063.587.487 1.428.73 2.524.73.945 0 1.654-.19 2.127-.569.48-.387.72-.895.72-1.525zm8.121-10.42v2.826h2.052v1.934h-2.052v6.488c0 .444.086.766.258.967.179.193.494.29.945.29.301 0 .605-.036.913-.108v2.02a6.426 6.426 0 01-1.719.247c-2.005 0-3.007-1.107-3.007-3.32V30.31h-1.913v-1.933h1.913v-2.825h2.61zm3.244 8.53c0-1.139.226-2.163.677-3.072.451-.917 1.085-1.619 1.901-2.106.817-.494 1.755-.74 2.815-.74 1.568 0 2.839.504 3.813 1.514.981 1.01 1.511 2.349 1.59 4.017l.011.613c0 1.145-.222 2.17-.666 3.072-.437.902-1.067 1.6-1.891 2.095-.816.494-1.762.74-2.836.74-1.64 0-2.954-.543-3.942-1.632-.981-1.096-1.472-2.553-1.472-4.372v-.129zm2.61.226c0 1.196.248 2.134.742 2.814.494.673 1.181 1.01 2.062 1.01.881 0 1.565-.344 2.052-1.031.494-.688.741-1.694.741-3.019 0-1.174-.254-2.105-.763-2.793-.501-.687-1.185-1.031-2.051-1.031-.853 0-1.529.34-2.031 1.02-.501.674-.752 1.683-.752 3.03zm16.49-3.545a6.47 6.47 0 00-1.064-.086c-1.196 0-2.001.458-2.417 1.375V40h-2.61V28.377h2.492l.065 1.3c.63-1.01 1.503-1.515 2.621-1.515.372 0 .68.05.923.15l-.01 2.45zm6.552 9.453c-1.654 0-2.997-.52-4.028-1.558-1.024-1.045-1.536-2.435-1.536-4.168v-.322c0-1.16.222-2.195.666-3.105.451-.916 1.081-1.629 1.891-2.137a4.982 4.982 0 012.707-.763c1.582 0 2.803.505 3.663 1.515.866 1.01 1.3 2.438 1.3 4.286v1.053h-7.595c.079.96.397 1.718.956 2.277.566.559 1.275.838 2.127.838 1.196 0 2.17-.483 2.922-1.45l1.407 1.342a4.738 4.738 0 01-1.869 1.622c-.774.38-1.644.57-2.611.57zm-.311-9.958c-.716 0-1.296.25-1.74.752-.437.501-.716 1.2-.838 2.094h4.973v-.193c-.057-.873-.29-1.532-.698-1.976-.408-.452-.974-.677-1.697-.677z" fill="#fff"/><path d="M23.808 3c-2.04.144-4.425 1.475-5.815 3.208-1.267 1.572-2.31 3.907-1.904 6.176 2.23.071 4.533-1.292 5.868-3.054C23.205 7.69 24.15 5.37 23.808 3z" fill="#E8E8E8"/><path d="M31.582 15.956C29.623 13.453 26.87 12 24.27 12c-3.433 0-4.884 1.675-7.27 1.675-2.458 0-4.326-1.67-7.294-1.67-2.916 0-6.02 1.816-7.99 4.921C-1.05 21.3-.577 29.521 3.909 36.524c1.604 2.505 3.748 5.323 6.551 5.347 2.495.025 3.198-1.63 6.578-1.647 3.38-.02 4.02 1.67 6.51 1.642 2.806-.022 5.067-3.144 6.672-5.65 1.15-1.796 1.578-2.7 2.47-4.728-6.489-2.518-7.53-11.922-1.107-15.532z" fill="#E8E8E8"/></svg>