<svg width="147" height="40" fill="none" xmlns="http://www.w3.org/2000/svg"><path d="M80.345 24.358h-6.059L73.02 28h-2.826l5.909-15.64h2.438L84.459 28h-2.836l-1.278-3.642zm-5.296-2.191h4.533l-2.267-6.488-2.266 6.488zm12.847-5.79l.076 1.343c.86-1.039 1.987-1.558 3.384-1.558 2.42 0 3.652 1.386 3.695 4.157V28h-2.61v-7.53c0-.738-.162-1.282-.484-1.633-.315-.358-.834-.537-1.558-.537-1.052 0-1.837.476-2.352 1.428V28h-2.61V16.377h2.46zm9.335 5.726c0-1.79.416-3.227 1.247-4.308.83-1.089 1.944-1.633 3.34-1.633 1.232 0 2.228.43 2.987 1.29V11.5h2.61V28h-2.363l-.129-1.203c-.781.945-1.823 1.418-3.126 1.418-1.361 0-2.464-.548-3.309-1.644-.838-1.095-1.257-2.585-1.257-4.469zm2.61.225c0 1.182.226 2.106.678 2.772.458.659 1.106.988 1.944.988 1.067 0 1.848-.476 2.342-1.429v-4.963c-.48-.93-1.254-1.396-2.321-1.396-.845 0-1.496.336-1.955 1.01-.458.666-.687 1.672-.687 3.018zm16.383-3.566a6.47 6.47 0 00-1.064-.086c-1.196 0-2.001.458-2.417 1.375V28h-2.61V16.377h2.492l.064 1.3c.631-1.01 1.504-1.515 2.622-1.515.372 0 .68.05.923.15l-.01 2.45zm.773 3.32c0-1.14.226-2.164.677-3.073.451-.917 1.085-1.619 1.901-2.106.817-.494 1.755-.74 2.815-.74 1.568 0 2.839.504 3.813 1.514.981 1.01 1.511 2.349 1.59 4.017l.011.613c0 1.146-.222 2.17-.666 3.072-.437.902-1.067 1.6-1.891 2.095-.816.494-1.762.74-2.836.74-1.64 0-2.954-.543-3.942-1.632-.981-1.096-1.472-2.553-1.472-4.372v-.129zm2.61.225c0 1.196.247 2.134.742 2.814.494.673 1.181 1.01 2.062 1.01.881 0 1.565-.344 2.052-1.031.494-.688.741-1.694.741-3.019 0-1.174-.254-2.105-.763-2.793-.501-.687-1.185-1.031-2.051-1.031-.853 0-1.529.34-2.031 1.02-.501.674-.752 1.683-.752 3.03zM132.788 28h-2.61V16.377h2.61V28zm-2.771-14.642c0-.4.125-.734.376-.999.257-.265.623-.397 1.095-.397.473 0 .838.132 1.096.397.258.265.387.598.387 1 0 .393-.129.723-.387.988-.258.258-.623.386-1.096.386-.472 0-.838-.129-1.095-.386a1.381 1.381 0 01-.376-.989zm5.134 8.744c0-1.79.416-3.226 1.246-4.307.831-1.089 1.945-1.633 3.341-1.633 1.232 0 2.227.43 2.987 1.29V11.5h2.61V28h-2.363l-.129-1.203c-.781.945-1.823 1.418-3.126 1.418-1.361 0-2.464-.548-3.309-1.644-.838-1.095-1.257-2.585-1.257-4.469zm2.611.226c0 1.182.225 2.106.676 2.772.459.659 1.107.988 1.945.988 1.067 0 1.847-.476 2.342-1.429v-4.963c-.48-.93-1.254-1.396-2.321-1.396-.845 0-1.496.336-1.955 1.01-.458.666-.687 1.672-.687 3.018z" fill="#fff"/><path d="M24.331 15H7.825a.83.83 0 00-.825.833v13.333a4.164 4.164 0 003.301 4.083v4.25c0 1.378 1.111 2.5 2.476 2.5s2.476-1.122 2.476-2.5v-4.167h1.65v4.166c0 1.379 1.112 2.5 2.477 2.5 1.365 0 2.475-1.121 2.475-2.5v-4.25a4.162 4.162 0 003.302-4.082V15.833A.829.829 0 0024.33 15zM20.398 4.44l1.391-3.277a.835.835 0 00-.434-1.094.82.82 0 00-1.083.439l-1.391 3.28a8.962 8.962 0 00-2.801-.452c-.977 0-1.918.161-2.801.451L11.884.507A.818.818 0 0010.801.07a.835.835 0 00-.432 1.094L11.76 4.44A9.185 9.185 0 007 12.5c0 .46.37.834.825.834h16.506a.83.83 0 00.826-.833 9.187 9.187 0 00-4.76-8.061zm-7.62 5.562a.83.83 0 01-.826-.833c0-.46.37-.834.825-.834a.83.83 0 01.825.834.83.83 0 01-.825.833zm6.601 0a.83.83 0 01-.825-.833c0-.46.37-.834.826-.834a.83.83 0 01.825.834.83.83 0 01-.825.833zM28.476 15C27.11 15 26 16.122 26 17.5v8.333c0 1.378 1.11 2.5 2.476 2.5 1.365 0 2.476-1.122 2.476-2.5V17.5c0-1.378-1.111-2.5-2.476-2.5zm-26 0C1.11 15 0 16.122 0 17.5v8.333c0 1.378 1.11 2.5 2.476 2.5 1.365 0 2.476-1.122 2.476-2.5V17.5c0-1.378-1.111-2.5-2.476-2.5z" fill="#E8E8E8"/></svg>