<svg width="26" height="31" fill="none" xmlns="http://www.w3.org/2000/svg"><path d="M3.14 28.406c0 1.058.855 1.913 1.913 1.913h7.216l.027-15.011H3.139v13.098zm10.477 1.914h7.33a1.912 1.912 0 001.914-1.914V15.308h-9.217l-.027 15.011zM23.871 7.183h-7.067c1.236-.51 2.42-1.083 2.906-1.57a3.292 3.292 0 000-4.65A3.267 3.267 0 0017.384 0c-.878 0-1.704.342-2.325.963-.697.697-1.5 2.86-2.06 4.576-.558-1.716-1.362-3.88-2.059-4.576A3.267 3.267 0 008.615 0C7.737 0 6.91.342 6.29.963a3.292 3.292 0 000 4.65c.486.487 1.67 1.06 2.906 1.57H2.129A2.134 2.134 0 000 9.312v2.52c0 1.172.957 2.128 2.129 2.128h10.174l.01-5.622c.204.07.369.123.478.159a.67.67 0 00.417 0l.453-.15-.01 5.614h10.22A2.134 2.134 0 0026 11.83V9.31a2.134 2.134 0 00-2.129-2.128zm-7.86-5.267a1.929 1.929 0 011.373-.569 1.943 1.943 0 011.373 3.313c-.536.537-2.845 1.466-4.742 2.138.628-2.025 1.488-4.373 1.997-4.882zm-8.769 0a1.929 1.929 0 011.373-.569c.518 0 1.006.202 1.372.569.509.509 1.368 2.857 1.997 4.882-1.897-.671-4.205-1.6-4.742-2.137a1.943 1.943 0 010-2.745z" fill="#AC782A"/></svg>