<svg width="16" height="16" fill="none" xmlns="http://www.w3.org/2000/svg"><path d="M12.27 4.69a.96.96 0 100-1.92.96.96 0 000 1.92zM8 3.89a4.108 4.108 0 100 8.217A4.108 4.108 0 008 3.89zm0 6.775a2.667 2.667 0 110-5.333 2.667 2.667 0 010 5.333z" fill="#fff"/><path d="M8 1.441c2.136 0 2.39.008 3.233.047.507.006 1.01.1 1.485.275a2.65 2.65 0 011.519 1.519c.176.476.269.978.275 1.485.039.844.047 1.097.047 3.234 0 2.136-.008 2.388-.047 3.232a4.43 4.43 0 01-.275 1.485 2.652 2.652 0 01-1.519 1.519 4.43 4.43 0 01-1.485.275c-.844.039-1.097.047-3.233.047s-2.39-.008-3.233-.047a4.43 4.43 0 01-1.485-.275 2.652 2.652 0 01-1.519-1.519 4.428 4.428 0 01-.275-1.485c-.039-.844-.047-1.097-.047-3.233s.008-2.39.047-3.233c.006-.507.1-1.01.275-1.485a2.65 2.65 0 011.519-1.519 4.432 4.432 0 011.485-.275c.844-.039 1.097-.047 3.233-.047zM8 0C5.827 0 5.555.01 4.701.048A5.88 5.88 0 002.76.42 4.09 4.09 0 00.42 2.76a5.871 5.871 0 00-.372 1.942C.009 5.555 0 5.827 0 8s.01 2.445.048 3.299c.013.663.14 1.32.372 1.941a4.091 4.091 0 002.34 2.34 5.87 5.87 0 001.942.372C5.555 15.991 5.827 16 8 16s2.445-.01 3.299-.048a5.87 5.87 0 001.942-.372 4.092 4.092 0 002.34-2.34 5.873 5.873 0 00.371-1.942C15.991 10.445 16 10.173 16 8s-.01-2.445-.048-3.299a5.872 5.872 0 00-.372-1.941A4.091 4.091 0 0013.24.42a5.871 5.871 0 00-1.942-.371C10.445.009 10.173 0 8 0z" fill="#fff"/></svg>