<svg width="32" height="24" fill="none" xmlns="http://www.w3.org/2000/svg"><path d="M19.572 12.016c.044-.026.089-.051.135-.075.282-3.6 3.573-6.292 7.23-5.745V1.362l-9.743 8.574 2.378 2.08z" fill="#AC782A"/><path d="M31.063 23.875c.517 0 .937-.42.937-.938v-8.5a.937.937 0 00-.937-.937h-.625c0-1.097.006-1.201-.021-1.49a4.448 4.448 0 00-2.775-3.694c-2.919-1.166-6.08 1.004-6.08 4.121V13.5H21a.937.937 0 00-.937.937v8.5c0 .518.42.937.938.937h10.062zm-4.125-4.938a.937.937 0 11-1.875 0v-.5a.938.938 0 011.875 0v.5zm-3.5-6.5A2.565 2.565 0 0126 9.875a2.565 2.565 0 012.563 2.562V13.5h-5.125v-1.063zM.001 1.363c0 2.462-.003 14.517.002 17.147l9.79-8.573L0 1.363zm13.497 9.328L25.643.004C22.57 0 4.46-.002 1.296.006l12.203 10.685zm4.689 3.747a2.8 2.8 0 01.179-.986l-2.591-2.266c-1.739 1.53-1.684 1.492-1.801 1.561a.942.942 0 01-.947 0c-.115-.067-.04-.012-1.811-1.563l-9.925 8.69c1.12.005 4.773.002 16.896.002v-5.438z" fill="#AC782A"/></svg>