<svg width="38" height="38" fill="none" xmlns="http://www.w3.org/2000/svg"><path d="M19 0C8.523 0 0 8.523 0 19s8.523 19 19 19c10.476 0 19-8.523 19-19S29.477 0 19 0zm-1.528 1.48h2.947v2.947h-2.947V1.479zM32.269 19c0 7.317-5.952 13.27-13.269 13.27S5.73 26.316 5.73 19c0-7.317 5.954-13.27 13.27-13.27 7.317 0 13.27 5.953 13.27 13.27zM7.653 5.569l2.084 2.084-2.084 2.084L5.57 7.653 7.653 5.57zm-3.28 14.905H1.424v-2.948h2.947v2.948zm3.28 11.957L5.57 30.347l2.084-2.084 2.084 2.084-2.084 2.084zm12.766 4.09h-2.947v-2.948h2.947v2.948zm9.928-4.09l-2.084-2.084 2.084-2.084 2.084 2.084-2.084 2.084zm0-22.694l-2.084-2.084 2.084-2.084 2.084 2.084-2.084 2.084zm3.172 10.737v-2.948h2.947v2.948H33.52z" fill="#AB864E"/><circle cx="18.807" cy="18.807" r="10.807" fill="#AB864E"/><path d="M18.389 24.28c-.728 0-1.34-.126-1.834-.378-.486-.252-.938-.63-1.358-1.134l.406-.364c.336.42.723.733 1.162.938.438.205.872.308 1.302.308.578 0 1.045-.187 1.4-.56.354-.383.532-.966.532-1.75 0-.719-.192-1.255-.574-1.61-.383-.364-.929-.546-1.638-.546-.439 0-1.022.107-1.75.322l-.56-.546.154-4.2h5.446v.616h-3.822l-.126 3.234.42-.028c.476-.028.742-.042.798-.042.569 0 1.124.089 1.666.266a2.98 2.98 0 011.386.882c.373.42.56.97.56 1.652 0 .728-.192 1.311-.574 1.75-.383.439-.85.747-1.4.924a5.108 5.108 0 01-1.596.266z" fill="#171717"/></svg>