<svg width="38" height="38" fill="none" xmlns="http://www.w3.org/2000/svg"><path d="M19 0C8.507 0 0 8.507 0 19c0 10.494 8.507 19 19 19s19-8.506 19-19C38 8.507 29.493 0 19 0zm9.464 4.934l-1.21 1.79a14.708 14.708 0 00-5.425-2.244l.425-2.118a16.75 16.75 0 016.21 2.572zm-8.481 22.498v2.206h-1.795v-2.194c-1.281-.141-2.484-.632-3.389-1.474-.904-.841-1.318-2.078-1.288-3.71l.046-.056h3.169c0 1.026.228 1.707.684 2.136.456.43 1.036.646 1.74.646.675 0 1.192-.18 1.551-.54.36-.359.54-.843.54-1.45 0-.601-.173-1.09-.517-1.468-.345-.378-.936-.73-1.774-1.057-1.646-.6-2.867-1.269-3.664-2.007-.797-.737-1.196-1.777-1.196-3.119 0-1.246.369-2.267 1.165-3.064.797-.796 1.908-1.266 3.19-1.407V8.49h1.794v2.407c1.282.192 2.347.737 3.092 1.634.745.897 1.119 2.048 1.104 3.479l-.025.042h-3.17c0-.897-.18-1.536-.539-2.01-.36-.475-.85-.706-1.473-.706-.638 0-1.112.187-1.424.554-.311.367-.466.856-.466 1.464 0 .578.164 1.048.494 1.408.33.36.936.714 1.819 1.062 1.638.645 2.852 1.335 3.641 2.069.79.734 1.185 1.76 1.185 3.08 0 1.29-.431 2.32-1.224 3.092-.793.77-1.86 1.227-3.27 1.367zm-4.237-25.07l.41 2.12a14.709 14.709 0 00-5.422 2.25L9.535 4.934a16.748 16.748 0 016.21-2.572zM4.934 9.536l1.79 1.21a14.706 14.706 0 00-2.244 5.425l-2.118-.425a16.754 16.754 0 012.572-6.21zm0 18.928a16.75 16.75 0 01-2.572-6.21l2.12-.41a14.71 14.71 0 002.25 5.423l-1.798 1.197zm4.602 4.602l1.21-1.79a14.706 14.706 0 005.425 2.244l-.425 2.118a16.75 16.75 0 01-6.21-2.572zm12.718 2.572l-.41-2.12a14.709 14.709 0 005.423-2.25l1.197 1.798a16.748 16.748 0 01-6.21 2.572zm10.812-7.174l-1.79-1.21a14.709 14.709 0 002.244-5.425l2.118.425a16.755 16.755 0 01-2.572 6.21zm.451-12.309a14.708 14.708 0 00-2.25-5.422l1.799-1.197a16.752 16.752 0 012.572 6.21l-2.12.41z" fill="#AB864E"/></svg>