<svg width="36" height="36" fill="none" xmlns="http://www.w3.org/2000/svg"><g clip-path="url(#clip0)" fill="#AB864E"><path d="M7.587 6.75H19.61l2.595-2.076a2.594 2.594 0 00.84-2.918A2.59 2.59 0 0020.574 0H6.624C5.496 0 4.525.69 4.152 1.756a2.593 2.593 0 00.838 2.916L7.587 6.75zM25.5 18.27l-.99.99a3.31 3.31 0 01-2.385.99 3.31 3.31 0 01-2.385-.99 3.368 3.368 0 010-4.77l2.475-2.475A19.239 19.239 0 0019.71 9H7.29C3.18 13.02 0 20.085 0 25.875 0 30.915 2.67 36 8.625 36H18.75C23.835 36 27 32.115 27 25.875c0-2.415-.555-5.055-1.5-7.605zm-12.57 3.105h1.14a3.182 3.182 0 013.18 3.18c0 1.575-1.14 2.88-2.625 3.135v1.185c0 .615-.51 1.125-1.125 1.125s-1.125-.51-1.125-1.125V27.75h-1.5c-.615 0-1.125-.51-1.125-1.125s.51-1.125 1.125-1.125h3.195a.938.938 0 000-1.875h-1.14a3.182 3.182 0 01-3.18-3.18c0-1.575 1.14-2.88 2.625-3.135v-1.185c0-.615.51-1.125 1.125-1.125s1.125.51 1.125 1.125v1.125h1.5c.615 0 1.125.51 1.125 1.125s-.51 1.125-1.125 1.125H12.93a.938.938 0 000 1.875z"/><path d="M33.375 9h-3.75a1.126 1.126 0 00-.795 1.92l.972.972-1.46 1.347-1.909-1.092a1.122 1.122 0 00-1.353.183l-3.75 3.75a1.125 1.125 0 001.59 1.591l3.143-3.142 1.878 1.074c.427.244.961.183 1.321-.15l2.132-1.967 1.185 1.185a1.13 1.13 0 001.227.243c.42-.174.694-.585.694-1.04v-3.75c0-.62-.504-1.124-1.125-1.124z"/></g><defs><clipPath id="clip0"><path fill="#fff" d="M0 0h36v36H0z"/></clipPath></defs></svg>