<svg width="38" height="36" fill="none" xmlns="http://www.w3.org/2000/svg"><path d="M37.257 9.374L19.37 3.064a1.112 1.112 0 00-.74 0L.743 9.373a1.113 1.113 0 00-.003 2.1l17.887 6.358a1.113 1.113 0 00.746 0l17.887-6.359a1.113 1.113 0 00-.003-2.099zM35.35 24.71V15l-2.227.791v8.92a2.234 2.234 0 000 3.877v5.471a1.113 1.113 0 102.226 0v-5.47a2.234 2.234 0 000-3.878z" fill="#AB864E"/><path d="M19.174 20.768c-.382 0-.758-.065-1.119-.193L8 17v4.899c0 1.199 1.25 2.212 3.716 3.013 2.15.697 4.798 1.082 7.458 1.082s5.308-.385 7.458-1.082c2.466-.8 3.716-1.814 3.716-3.013V17l-10.055 3.575c-.36.128-.737.193-1.119.193z" fill="#AB864E"/></svg>