<svg width="38" height="38" fill="none" xmlns="http://www.w3.org/2000/svg"><g clip-path="url(#clip0)" fill="#AB864E"><path d="M21 19.258h.964V18L21 19.258z"/><path d="M32.435 5.565A18.876 18.876 0 0019 0 18.876 18.876 0 005.565 5.565 18.876 18.876 0 000 19c0 5.075 1.976 9.846 5.565 13.435A18.876 18.876 0 0019 38c5.075 0 9.846-1.977 13.435-5.565A18.876 18.876 0 0038 19c0-5.075-1.976-9.847-5.565-13.435zM24.91 19.629v1.782h-.923v1.3h-1.991v-1.3H19.3v-1.782l3.323-4.235h1.363v4.235h.922zM19 31.989c-7.162 0-12.988-5.827-12.988-12.99 0-7.16 5.826-12.987 12.988-12.987V3.976l3.965 3.149L19 10.274V8.238C13.066 8.238 8.238 13.066 8.238 19S13.066 29.762 19 29.762 29.762 24.934 29.762 19h2.226c0 7.162-5.826 12.988-12.988 12.988zm-2.792-14.855c-.112-.084-.265-.126-.461-.126-.23 0-.45.06-.655.178-.207.12-.421.311-.645.577l-1.258-1.478a2.15 2.15 0 01.514-.404 3.88 3.88 0 01.697-.314 5.233 5.233 0 011.693-.278c.803 0 1.413.166 1.829.498.416.332.624.795.624 1.389 0 .217-.028.409-.084.577a1.796 1.796 0 01-.566.828 4.67 4.67 0 01-.42.314 7.734 7.734 0 01-.55.34 6.833 6.833 0 00-.571.363h2.306v1.782h-5.524c0-.35.027-.657.083-.923a2.221 2.221 0 01.76-1.29c.2-.167.446-.331.74-.492.377-.203.676-.365.896-.488a6.52 6.52 0 00.498-.298.761.761 0 00.215-.194.33.33 0 00.047-.173c0-.175-.056-.304-.168-.388z"/></g><defs><clipPath id="clip0"><path fill="#fff" d="M0 0h38v38H0z"/></clipPath></defs></svg>